<svg width="18" height="18" viewBox="0 0 18 18" fill="none" xmlns="http://www.w3.org/2000/svg">
<g clip-path="url(#clip0_6244_996)">
<path d="M3.65619 17.438H2.53119C2.30741 17.438 2.0928 17.3491 1.93457 17.1909C1.77633 17.0326 1.68744 16.818 1.68744 16.5942V11.5317C1.68744 11.308 1.77633 11.0934 1.93457 10.9351C2.0928 10.7769 2.30741 10.688 2.53119 10.688H3.65619C3.87996 10.688 4.09458 10.7769 4.25281 10.9351C4.41104 11.0934 4.49994 11.308 4.49994 11.5317V16.5942C4.49994 16.818 4.41104 17.0326 4.25281 17.1909C4.09458 17.3491 3.87996 17.438 3.65619 17.438Z" fill="white"/>
<path d="M11.5312 17.437H10.4062C10.1825 17.437 9.96786 17.3481 9.80963 17.1899C9.6514 17.0316 9.5625 16.817 9.5625 16.5933V8.15576C9.5625 7.93199 9.6514 7.71737 9.80963 7.55914C9.96786 7.40091 10.1825 7.31201 10.4062 7.31201H11.5312C11.755 7.31201 11.9696 7.40091 12.1279 7.55914C12.2861 7.71737 12.375 7.93199 12.375 8.15576V16.5933C12.375 16.817 12.2861 17.0316 12.1279 17.1899C11.9696 17.3481 11.755 17.437 11.5312 17.437Z" fill="white"/>
<path d="M15.4687 17.4374H14.3437C14.1199 17.4374 13.9053 17.3485 13.7471 17.1903C13.5888 17.0321 13.4999 16.8175 13.4999 16.5937V4.21869C13.4999 3.99491 13.5888 3.7803 13.7471 3.62207C13.9053 3.46383 14.1199 3.37494 14.3437 3.37494H15.4687C15.6925 3.37494 15.9071 3.46383 16.0653 3.62207C16.2235 3.7803 16.3124 3.99491 16.3124 4.21869V16.5937C16.3124 16.8175 16.2235 17.0321 16.0653 17.1903C15.9071 17.3485 15.6925 17.4374 15.4687 17.4374Z" fill="white"/>
<path d="M7.59375 17.4372H6.46875C6.24497 17.4372 6.03036 17.3483 5.87213 17.1901C5.71389 17.0319 5.625 16.8172 5.625 16.5935V1.40598C5.625 1.1822 5.71389 0.967588 5.87213 0.809354C6.03036 0.65112 6.24497 0.562225 6.46875 0.562225H7.59375C7.81753 0.562225 8.03214 0.65112 8.19037 0.809354C8.3486 0.967588 8.4375 1.1822 8.4375 1.40598V16.5935C8.4375 16.8172 8.3486 17.0319 8.19037 17.1901C8.03214 17.3483 7.81753 17.4372 7.59375 17.4372Z" fill="white"/>
</g>
<defs>
<clipPath id="clip0_6244_996">
<rect width="18" height="18" fill="white"/>
</clipPath>
</defs>
</svg>
