<svg width="18" height="18" viewBox="0 0 18 18" fill="none" xmlns="http://www.w3.org/2000/svg">
<path d="M1.12494 13.2182C1.12494 13.7404 1.33236 14.2412 1.70157 14.6104C2.07078 14.9796 2.57154 15.187 3.09369 15.187H14.9062C15.4283 15.187 15.9291 14.9796 16.2983 14.6104C16.6675 14.2412 16.8749 13.7404 16.8749 13.2182V7.80418H1.12494V13.2182ZM3.44525 10.5464C3.44525 10.2667 3.55637 9.99839 3.75416 9.80059C3.95195 9.6028 4.22022 9.49168 4.49994 9.49168H6.18744C6.46716 9.49168 6.73542 9.6028 6.93321 9.80059C7.13101 9.99839 7.24212 10.2667 7.24212 10.5464V11.2495C7.24212 11.5292 7.13101 11.7975 6.93321 11.9953C6.73542 12.1931 6.46716 12.3042 6.18744 12.3042H4.49994C4.22022 12.3042 3.95195 12.1931 3.75416 11.9953C3.55637 11.7975 3.44525 11.5292 3.44525 11.2495V10.5464Z" fill="white"/>
<path d="M14.9062 2.81154H3.09369C2.57154 2.81154 2.07078 3.01896 1.70157 3.38817C1.33236 3.75738 1.12494 4.25814 1.12494 4.78029V5.69435H16.8749V4.78029C16.8749 4.25814 16.6675 3.75738 16.2983 3.38817C15.9291 3.01896 15.4283 2.81154 14.9062 2.81154Z" fill="white"/>
</svg>
