<svg width="37" height="35" viewBox="0 0 37 35" fill="none" xmlns="http://www.w3.org/2000/svg">
<path d="M21.5847 16.3264L16.2528 20.6192C15.2438 21.4103 13.8294 21.4103 12.8204 20.6192L7.44278 16.3264" stroke="#94A2B3" stroke-width="1.5" stroke-linecap="round" stroke-linejoin="round"/>
<path fill-rule="evenodd" clip-rule="evenodd" d="M8.60984 9.375H20.3947C22.094 9.39406 23.7113 10.1124 24.87 11.3628C26.0287 12.6131 26.6277 14.2863 26.5275 15.9926V24.1525C26.6277 25.8589 26.0287 27.532 24.87 28.7824C23.7113 30.0327 22.094 30.7511 20.3947 30.7701H8.60984C4.95995 30.7701 2.5 27.8008 2.5 24.1525V15.9926C2.5 12.3443 4.95995 9.375 8.60984 9.375Z" stroke="#94A2B3" stroke-width="1.5" stroke-linecap="round" stroke-linejoin="round"/>
<circle cx="27" cy="10" r="10" fill="#FDFDFD"/>
<circle opacity="0.8" cx="27" cy="10" r="9" fill="#F9B32E"/>
<path d="M27.088 15.168C26.4627 15.168 25.898 15.056 25.394 14.832C24.89 14.5987 24.484 14.2533 24.176 13.796C23.8773 13.3387 23.7187 12.7693 23.7 12.088H24.89C24.8993 12.648 25.0953 13.1333 25.478 13.544C25.8607 13.9453 26.3973 14.146 27.088 14.146C27.7787 14.146 28.2967 13.9547 28.642 13.572C28.9967 13.1893 29.174 12.7273 29.174 12.186C29.174 11.7287 29.062 11.3553 28.838 11.066C28.6233 10.7767 28.3293 10.562 27.956 10.422C27.592 10.282 27.1907 10.212 26.752 10.212H26.024V9.218H26.752C27.3867 9.218 27.8813 9.07333 28.236 8.784C28.6 8.49467 28.782 8.08867 28.782 7.566C28.782 7.12733 28.6373 6.768 28.348 6.488C28.068 6.19867 27.648 6.054 27.088 6.054C26.5467 6.054 26.1127 6.21733 25.786 6.544C25.4593 6.86133 25.2773 7.26267 25.24 7.748H24.05C24.078 7.216 24.218 6.74467 24.47 6.334C24.7313 5.92333 25.086 5.606 25.534 5.382C25.982 5.14867 26.5 5.032 27.088 5.032C27.7227 5.032 28.25 5.144 28.67 5.368C29.0993 5.592 29.4213 5.89067 29.636 6.264C29.86 6.63733 29.972 7.048 29.972 7.496C29.972 7.99067 29.8367 8.44333 29.566 8.854C29.2953 9.25533 28.8893 9.526 28.348 9.666C28.9267 9.78733 29.4073 10.0627 29.79 10.492C30.1727 10.9213 30.364 11.486 30.364 12.186C30.364 12.7273 30.238 13.2267 29.986 13.684C29.7433 14.132 29.3793 14.4913 28.894 14.762C28.4087 15.0327 27.8067 15.168 27.088 15.168Z" fill="white"/>
</svg>
