<svg width="35" height="35" viewBox="0 0 35 35" fill="none" xmlns="http://www.w3.org/2000/svg">
<path fill-rule="evenodd" clip-rule="evenodd" d="M4.37603 22.2339V21.9602C4.41619 21.1503 4.67575 20.3656 5.12794 19.687C5.88063 18.8718 6.39588 17.8729 6.61964 16.795C6.61964 15.9619 6.61964 15.1169 6.69241 14.2838C7.06836 10.273 11.0341 7.5 14.9513 7.5H15.0483C18.9656 7.5 22.9313 10.273 23.3194 14.2838C23.3921 15.1169 23.3194 15.9619 23.38 16.795C23.6068 17.8754 24.1215 18.8774 24.8717 19.6989C25.3273 20.3715 25.5873 21.1533 25.6236 21.9602V22.222C25.6507 23.3101 25.276 24.371 24.5685 25.2092C23.6337 26.1893 22.3651 26.7991 21.003 26.923C17.0087 27.3515 12.9788 27.3515 8.98453 26.923C7.62393 26.7937 6.3572 26.1849 5.41901 25.2092C4.7225 24.3704 4.3528 23.3157 4.37603 22.2339Z" stroke="#94A2B3" stroke-width="1.5" stroke-linecap="round" stroke-linejoin="round"/>
<path d="M11.9437 31.0647C12.5678 31.8481 13.4842 32.355 14.4903 32.4734C15.4963 32.5918 16.509 32.3118 17.3041 31.6955C17.5486 31.5132 17.7687 31.3013 17.959 31.0647" stroke="#94A2B3" stroke-width="1.5" stroke-linecap="round" stroke-linejoin="round"/>
<circle cx="25" cy="10" r="10" fill="#FDFDFD"/>
<circle opacity="0.8" cx="25" cy="10" r="9" fill="#328BE0"/>
<path d="M24.002 15V6.516L22.42 6.866V6.054L24.394 5.2H25.192V15H24.002Z" fill="white"/>
</svg>
