<svg width="16" height="16" viewBox="0 0 16 16" fill="none" xmlns="http://www.w3.org/2000/svg">
<path d="M15.508 3.2377C15.4675 3.15892 15.409 3.09083 15.3372 3.03895C15.2654 2.98708 15.1823 2.9529 15.0948 2.9392C15.0073 2.92549 14.9178 2.93265 14.8335 2.96008C14.7493 2.98752 14.6728 3.03445 14.6101 3.09707L12.4501 5.25848C12.3441 5.36297 12.2012 5.42155 12.0523 5.42155C11.9035 5.42155 11.7606 5.36297 11.6545 5.25848L10.7208 4.32332C10.6685 4.27109 10.6271 4.20907 10.5988 4.14082C10.5705 4.07257 10.556 3.99941 10.556 3.92553C10.556 3.85165 10.5705 3.7785 10.5988 3.71024C10.6271 3.64199 10.6685 3.57997 10.7208 3.52774L12.8716 1.37653C12.9361 1.31206 12.984 1.23288 13.011 1.14582C13.0381 1.05875 13.0436 0.966408 13.0271 0.87674C13.0106 0.787073 12.9725 0.702769 12.9161 0.63109C12.8598 0.559412 12.7868 0.502507 12.7036 0.465278C11.079 -0.26105 9.05121 0.117934 7.77258 1.38707C6.68625 2.46567 6.36247 4.15106 6.88489 6.01118C6.91305 6.11037 6.91322 6.21542 6.88536 6.3147C6.85749 6.41399 6.8027 6.50362 6.72704 6.57368L0.874226 11.9192C0.646217 12.1239 0.462304 12.3729 0.333706 12.6511C0.205108 12.9292 0.13452 13.2306 0.126249 13.5369C0.117978 13.8432 0.172197 14.148 0.285598 14.4327C0.399 14.7174 0.569206 14.976 0.785835 15.1927C1.00246 15.4094 1.26097 15.5797 1.54559 15.6933C1.83022 15.8068 2.13498 15.8611 2.4413 15.853C2.74762 15.8449 3.04907 15.7744 3.32726 15.6459C3.60546 15.5175 3.85456 15.3337 4.05938 15.1057L9.46219 9.23992C9.53124 9.16524 9.61936 9.11081 9.71706 9.08249C9.81475 9.05418 9.91832 9.05306 10.0166 9.07926C10.5462 9.22436 11.0924 9.29965 11.6415 9.30321C12.8157 9.30321 13.8462 8.92317 14.5894 8.19086C15.9657 6.83489 16.1756 4.53496 15.508 3.2377ZM2.49809 14.7208C2.26655 14.7461 2.03288 14.6988 1.82931 14.5857C1.62575 14.4725 1.46234 14.2989 1.36163 14.0889C1.26092 13.8789 1.22787 13.6428 1.26705 13.4132C1.30624 13.1836 1.41572 12.9718 1.58038 12.8071C1.74505 12.6423 1.95679 12.5328 2.18637 12.4935C2.41595 12.4543 2.65206 12.4872 2.86211 12.5879C3.07216 12.6885 3.2458 12.8518 3.35906 13.0554C3.47231 13.2589 3.51961 13.4926 3.49442 13.7241C3.4667 13.9789 3.35283 14.2165 3.17166 14.3978C2.99048 14.579 2.75285 14.693 2.49809 14.7208Z" fill="white"/>
</svg>
