<svg width="18" height="18" viewBox="0 0 18 18" fill="none" xmlns="http://www.w3.org/2000/svg">
<path d="M15.0469 7.8752H10.125C9.67745 7.8752 9.24822 7.69741 8.93176 7.38094C8.61529 7.06447 8.4375 6.63525 8.4375 6.1877V1.26582C8.4375 1.22853 8.42268 1.19276 8.39631 1.16639C8.36994 1.14001 8.33417 1.1252 8.29687 1.1252H5.0625C4.46576 1.1252 3.89347 1.36225 3.47151 1.78421C3.04955 2.20616 2.8125 2.77846 2.8125 3.3752V14.6252C2.8125 15.2219 3.04955 15.7942 3.47151 16.2162C3.89347 16.6381 4.46576 16.8752 5.0625 16.8752H12.9375C13.5342 16.8752 14.1065 16.6381 14.5285 16.2162C14.9504 15.7942 15.1875 15.2219 15.1875 14.6252V8.01582C15.1875 7.97853 15.1727 7.94276 15.1463 7.91638C15.1199 7.89001 15.0842 7.8752 15.0469 7.8752Z" fill="white"/>
<path d="M14.7382 6.6312L9.68238 1.57538C9.67255 1.5656 9.66005 1.55896 9.64645 1.55627C9.63285 1.55358 9.61876 1.55497 9.60594 1.56027C9.59313 1.56556 9.58217 1.57453 9.57444 1.58604C9.56671 1.59755 9.56256 1.61109 9.5625 1.62495V6.18858C9.5625 6.33777 9.62176 6.48084 9.72725 6.58633C9.83274 6.69182 9.97582 6.75108 10.125 6.75108H14.6886C14.7025 6.75102 14.716 6.74687 14.7275 6.73914C14.7391 6.73141 14.748 6.72045 14.7533 6.70764C14.7586 6.69483 14.76 6.68073 14.7573 6.66713C14.7546 6.65353 14.748 6.64103 14.7382 6.6312Z" fill="white"/>
</svg>
