<svg width="18" height="12" viewBox="0 0 18 12" fill="none" xmlns="http://www.w3.org/2000/svg">
<path fill-rule="evenodd" clip-rule="evenodd" d="M12.1187 3.17464C12.1187 4.9369 10.7139 6.34995 8.96177 6.34995C7.20969 6.34995 5.80481 4.9369 5.80481 3.17464C5.80481 1.4117 7.20969 0 8.96177 0C10.7139 0 12.1187 1.4117 12.1187 3.17464ZM8.96177 12C6.38838 12 4.19107 11.592 4.19107 9.96013C4.19107 8.32755 6.37428 7.90472 8.96177 7.90472C11.5352 7.90472 13.7325 8.31269 13.7325 9.94527C13.7325 11.5772 11.5493 12 8.96177 12ZM13.4678 3.23192C13.4678 4.13027 13.1999 4.96716 12.7298 5.66288C12.6814 5.73448 12.7244 5.83107 12.8097 5.84593C12.9272 5.86619 13.0488 5.87767 13.1723 5.88105C14.4046 5.91347 15.5107 5.11576 15.8162 3.9148C16.2689 2.13093 14.9399 0.529422 13.2476 0.529422C13.0635 0.529422 12.8876 0.54901 12.7164 0.584134C12.6928 0.589538 12.668 0.600345 12.6546 0.621284C12.6385 0.646951 12.6505 0.681399 12.6667 0.703689C13.175 1.42035 13.4678 2.29439 13.4678 3.23192ZM15.5087 7.13443C16.3367 7.29721 16.8813 7.62954 17.107 8.11249C17.2977 8.50898 17.2977 8.96896 17.107 9.36478C16.7618 10.1139 15.649 10.3543 15.2165 10.4165C15.1272 10.43 15.0554 10.3523 15.0648 10.2625C15.2857 8.18679 13.5283 7.20265 13.0736 6.97637C13.0541 6.96624 13.0501 6.9507 13.0521 6.94125C13.0535 6.93449 13.0615 6.92369 13.0763 6.92166C14.0601 6.90342 15.1178 7.03851 15.5087 7.13443ZM4.82783 5.88098C4.9514 5.87761 5.07228 5.8668 5.19047 5.84586C5.27576 5.831 5.31874 5.73441 5.27038 5.66281C4.8003 4.96709 4.53235 4.13021 4.53235 3.23185C4.53235 2.29432 4.82515 1.42028 5.33351 0.703621C5.34963 0.681331 5.36104 0.646883 5.3456 0.621216C5.33217 0.600952 5.30665 0.589469 5.28382 0.584066C5.1119 0.548942 4.93595 0.529354 4.75195 0.529354C3.05964 0.529354 1.73063 2.13086 2.18393 3.91474C2.48949 5.11569 3.59553 5.91341 4.82783 5.88098ZM4.9477 6.94084C4.94972 6.95097 4.94569 6.96583 4.92689 6.97664C4.47157 7.20292 2.71412 8.18706 2.93506 10.2621C2.94446 10.3526 2.87328 10.4296 2.78396 10.4167C2.35148 10.3546 1.23872 10.1141 0.893544 9.36505C0.702152 8.96856 0.702152 8.50925 0.893544 8.11276C1.11919 7.62981 1.66314 7.29748 2.49117 7.13402C2.88268 7.03878 3.9397 6.90369 4.9242 6.92193C4.93897 6.92396 4.94636 6.93476 4.9477 6.94084Z" fill="white"/>
</svg>
