<svg width="41" height="41" viewBox="0 0 41 41" fill="none" xmlns="http://www.w3.org/2000/svg">
<path d="M8.44648 21.7032H0C0.267693 26.32 2.07239 30.6577 5.16959 34.1286L11.1301 28.1681C9.65595 26.3701 8.6881 24.1419 8.44648 21.7032Z" fill="#D34646"/>
<path d="M8.44648 19.2966C8.6881 16.8579 9.65587 14.6298 11.1301 12.8318L5.16959 6.87122C2.07239 10.3422 0.267693 14.6799 0 19.2966H8.44648Z" fill="#D34646"/>
<path d="M32.5534 21.7032C32.3118 24.1419 31.344 26.37 29.8698 28.1681L35.8303 34.1286C38.9275 30.6577 40.7322 26.32 40.9999 21.7032H32.5534Z" fill="#D34646"/>
<path d="M20.5 10.7933C15.1477 10.7933 10.7934 15.1477 10.7934 20.4999C10.7934 25.8522 15.1477 30.2065 20.5 30.2065C25.8522 30.2065 30.2065 25.8522 30.2065 20.4999C30.2065 15.1477 25.8522 10.7933 20.5 10.7933ZM21.7309 25.703V25.9428C21.7309 26.6406 21.1757 27.1581 20.5276 27.1581C19.863 27.1581 19.3243 26.6194 19.3243 25.9548V25.8391C18.7695 25.7419 18.2629 25.5345 17.6232 25.1158C17.0531 24.7426 16.9192 23.9826 17.2753 23.4384C17.6392 22.8821 18.3848 22.7263 18.9411 23.0901C19.5275 23.4738 19.7156 23.5039 20.5196 23.4982C21.2936 23.4931 21.6021 22.8854 21.6623 22.5272C21.7345 22.0978 21.5504 21.7527 21.0593 21.5789C20.1435 21.2549 19.0648 20.8434 18.31 20.2516C16.6557 18.9545 17.1556 15.9833 19.3244 15.1951V15.0329C19.3244 14.3352 19.8796 13.8176 20.5277 13.8176C21.1923 13.8176 21.731 14.3564 21.731 15.0209V15.1224C22.3446 15.301 22.8176 15.6015 23.0874 15.8503C23.0785 15.8599 23.0777 15.8562 23.0857 15.8633C23.5713 16.3128 23.6032 17.0706 23.1556 17.5591C22.7075 18.0481 21.9486 18.082 21.4585 17.6357C21.1481 17.4058 20.6748 17.3066 20.1764 17.4577C19.8917 17.5435 19.7374 17.8483 19.7356 18.1216C19.7371 18.247 19.7731 18.3287 19.7952 18.346C20.2491 18.702 21.0944 19.0272 21.8614 19.2983C25.014 20.4127 24.6644 24.6428 21.7309 25.703Z" fill="#D34646"/>
<path d="M29.8699 12.8318C31.3441 14.6298 32.3119 16.8579 32.5535 19.2966H41C40.7323 14.6799 38.9276 10.3422 35.8304 6.87122L29.8699 12.8318Z" fill="#D34646"/>
<path d="M21.7032 0V8.44648C24.1419 8.6881 26.37 9.65587 28.1681 11.1301L34.1286 5.16959C30.6578 2.07239 26.32 0.267693 21.7032 0V0Z" fill="#D34646"/>
<path d="M28.1681 29.8699C26.3701 31.3441 24.142 32.3119 21.7033 32.5535V41C26.32 40.7323 30.6578 38.9276 34.1287 35.8304L28.1681 29.8699Z" fill="#D34646"/>
<path d="M19.2967 32.5534C16.858 32.3118 14.6299 31.344 12.8318 29.8698L6.87128 35.8303C10.3422 38.9275 14.6799 40.7322 19.2967 40.9999V32.5534Z" fill="#D34646"/>
<path d="M12.8318 11.1301C14.6299 9.65595 16.858 8.6881 19.2967 8.44648V0C14.6799 0.267693 10.3422 2.07239 6.87128 5.16959L12.8318 11.1301Z" fill="#D34646"/>
</svg>
