<svg width="8" height="8" viewBox="0 0 8 8" fill="none" xmlns="http://www.w3.org/2000/svg">
<path fill-rule="evenodd" clip-rule="evenodd" d="M4.82498 4.00002L7.32923 1.49577C7.55731 1.26769 7.55731 0.899024 7.32923 0.67094C7.10115 0.442857 6.73248 0.442857 6.5044 0.67094L4.00015 3.17519L1.4959 0.67094C1.26781 0.442857 0.899146 0.442857 0.671062 0.67094C0.442979 0.899024 0.442979 1.26769 0.671062 1.49577L3.17531 4.00002L0.671062 6.50427C0.442979 6.73236 0.442979 7.10102 0.671062 7.32911C0.784812 7.44286 0.934146 7.50002 1.08348 7.50002C1.23281 7.50002 1.38215 7.44286 1.4959 7.32911L4.00015 4.82486L6.5044 7.32911C6.61815 7.44286 6.76748 7.50002 6.91681 7.50002C7.06615 7.50002 7.21548 7.44286 7.32923 7.32911C7.55731 7.10102 7.55731 6.73236 7.32923 6.50427L4.82498 4.00002Z" fill="#2D2D35" fill-opacity="0.8"/>
</svg>
