<svg width="36" height="34" viewBox="0 0 36 34" fill="none" xmlns="http://www.w3.org/2000/svg">
<path fill-rule="evenodd" clip-rule="evenodd" d="M17.7633 34C27.3418 34 35.1067 26.3888 35.1067 17C35.1067 7.61116 27.3418 0 17.7633 0C8.18491 0 0.420044 7.61116 0.420044 17C0.420044 26.3888 8.18491 34 17.7633 34Z" fill="#C8FFE2"/>
<g clip-path="url(#clip0_301_12509)">
<path d="M12.7972 19.6737C12.7972 20.0024 12.9305 20.3177 13.1676 20.5502C13.4048 20.7827 13.7265 20.9133 14.0619 20.9133H21.6496C21.9849 20.9133 22.3066 20.7827 22.5438 20.5502C22.7809 20.3177 22.9142 20.0024 22.9142 19.6737V16.2648H12.7972V19.6737ZM14.2877 17.9914C14.2877 17.8153 14.3591 17.6464 14.4861 17.5218C14.6132 17.3973 14.7855 17.3273 14.9652 17.3273H16.0491C16.2288 17.3273 16.4011 17.3973 16.5282 17.5218C16.6552 17.6464 16.7266 17.8153 16.7266 17.9914V18.4341C16.7266 18.6102 16.6552 18.7791 16.5282 18.9037C16.4011 19.0282 16.2288 19.0982 16.0491 19.0982H14.9652C14.7855 19.0982 14.6132 19.0282 14.4861 18.9037C14.3591 18.7791 14.2877 18.6102 14.2877 18.4341V17.9914Z" fill="#39BD78"/>
<path d="M21.6496 13.1213H14.0619C13.7265 13.1213 13.4048 13.2519 13.1676 13.4844C12.9305 13.7168 12.7972 14.0321 12.7972 14.3609V14.9364H22.9142V14.3609C22.9142 14.0321 22.7809 13.7168 22.5438 13.4844C22.3066 13.2519 21.9849 13.1213 21.6496 13.1213Z" fill="#39BD78"/>
</g>
<defs>
<clipPath id="clip0_301_12509">
<rect width="11.5622" height="11.3333" fill="white" transform="translate(12.0746 11.3511)"/>
</clipPath>
</defs>
</svg>
