<svg width="19" height="18" viewBox="0 0 19 18" fill="none" xmlns="http://www.w3.org/2000/svg">
<path d="M1.35297 13.2183C1.35297 13.7404 1.56458 14.2412 1.94124 14.6104C2.31791 14.9796 2.82878 15.187 3.36147 15.187H15.4125C15.9452 15.187 16.4561 14.9796 16.8327 14.6104C17.2094 14.2412 17.421 13.7404 17.421 13.2183V7.8042H1.35297V13.2183ZM3.72014 10.5464C3.72014 10.2667 3.8335 9.9984 4.03528 9.80061C4.23707 9.60282 4.51075 9.4917 4.79612 9.4917H6.5177C6.80307 9.4917 7.07675 9.60282 7.27854 9.80061C7.48032 9.9984 7.59369 10.2667 7.59369 10.5464V11.2495C7.59369 11.5292 7.48032 11.7975 7.27854 11.9953C7.07675 12.1931 6.80307 12.3042 6.5177 12.3042H4.79612C4.51075 12.3042 4.23707 12.1931 4.03528 11.9953C3.8335 11.7975 3.72014 11.5292 3.72014 11.2495V10.5464Z" fill="#39BD78"/>
<path d="M15.4125 2.81152H3.36147C2.82878 2.81152 2.31791 3.01894 1.94124 3.38816C1.56458 3.75737 1.35297 4.25813 1.35297 4.78027V5.69433H17.421V4.78027C17.421 4.25813 17.2094 3.75737 16.8327 3.38816C16.4561 3.01894 15.9452 2.81152 15.4125 2.81152Z" fill="#39BD78"/>
</svg>
