<svg width="48" height="48" viewBox="0 0 48 48" fill="none" xmlns="http://www.w3.org/2000/svg">
<g opacity="0.8" clip-path="url(#clip0_2651_10509)">
<path d="M30.3806 16.7309C31.1429 16.7309 31.7609 16.1129 31.7609 15.3506C31.7609 14.5883 31.1429 13.9703 30.3806 13.9703C29.6183 13.9703 29.0003 14.5883 29.0003 15.3506C29.0003 16.1129 29.6183 16.7309 30.3806 16.7309Z" fill="#F9B32E"/>
<path d="M6.08044 32.1187C6.72293 32.1187 7.24378 31.5978 7.24378 30.9553C7.24378 30.3128 6.72293 29.792 6.08044 29.792C5.43794 29.792 4.91709 30.3128 4.91709 30.9553C4.91709 31.5978 5.43794 32.1187 6.08044 32.1187Z" fill="#39BD78"/>
<path d="M26.566 3.36394L23.5996 2.93297L22.273 0.244969C22.199 0.0949688 22.0462 0 21.879 0C21.7118 0 21.559 0.094875 21.485 0.244969L20.1584 2.93297L17.1919 3.36394C16.8324 3.41616 16.6881 3.85959 16.9484 4.11338L19.0949 6.20578L18.5881 9.16031C18.5268 9.51834 18.9039 9.79294 19.2256 9.62344L21.8789 8.22863C24.7692 9.74803 24.5875 9.67406 24.7366 9.67406C24.8277 9.67406 24.9184 9.64575 24.995 9.59006C25.1302 9.49172 25.198 9.32522 25.1698 9.16041L24.663 6.20588L26.8094 4.11347C27.0697 3.86006 26.926 3.41634 26.566 3.36394Z" fill="#F9B32E"/>
<path d="M21.6552 6.98091L19.5087 4.8885C19.2487 4.635 19.3924 4.19138 19.7522 4.13906L22.7187 3.70809L23.3504 2.42813L22.2729 0.244969C22.1989 0.0949688 22.0461 0 21.8789 0C21.7117 0 21.5589 0.094875 21.4849 0.244969L20.1583 2.93297L17.1918 3.36394C16.8323 3.41616 16.688 3.85959 16.9483 4.11338L19.0948 6.20578L18.588 9.16031C18.5267 9.51834 18.9038 9.79294 19.2255 9.62344L21.3977 8.48156L21.6552 6.98091Z" fill="#328BE0"/>
<path d="M43.3859 17.527L41.6005 15.7556L42.0476 13.2807C42.1017 12.9807 41.7876 12.7479 41.5162 12.8874L39.2798 14.0379L37.0642 12.8479C36.7957 12.7039 36.4771 12.9306 36.5259 13.2318L36.9292 15.7142L35.1127 17.4536C34.8925 17.6646 35.01 18.0379 35.3115 18.0842L37.7971 18.4679L38.8902 20.7329C38.9166 20.7878 38.9555 20.8341 39.0027 20.869C39.1864 21.005 39.4485 20.9425 39.5514 20.7387L40.6843 18.4935L43.1763 18.1538C43.4782 18.113 43.6024 17.7419 43.3859 17.527Z" fill="#F9B32E"/>
<path d="M38.2334 17.4776L37.8302 14.9952C37.7814 14.6943 38.0995 14.4671 38.3685 14.6113L40.5841 15.8012L41.6955 15.2295L42.0475 13.2809C42.1016 12.9809 41.7875 12.748 41.5161 12.8875L39.2798 14.038L37.0642 12.848C36.7957 12.704 36.477 12.9307 36.5258 13.2319L36.9291 15.7143L35.1126 17.4538C34.8924 17.6647 35.0099 18.038 35.3114 18.0843L37.2821 18.3886L38.2334 17.4776Z" fill="#328BE0"/>
<path d="M17.9043 44.217C17.9043 44.217 16.4455 32.077 12.249 25.2588C11.6826 24.3999 10.7881 23.9634 9.62822 24.5782L9.62719 24.5787C8.38078 25.2401 9.06441 26.5656 9.06441 26.5656L9.06431 26.5657C10.9887 28.9561 15.2654 34.9919 17.9043 44.217Z" fill="#F9B32E"/>
<path d="M41.1712 35.4629L41.1713 35.4628C41.3183 35.3734 41.4601 35.2884 41.5971 35.2076C42.1196 34.8319 42.8526 34.0522 42.1288 32.935C41.2802 31.625 39.8094 32.5281 39.5772 32.6827C31.9593 38.1586 27.7405 47.9999 27.7405 47.9999C32.5329 41.3641 37.9844 37.4038 41.1712 35.4629Z" fill="#F9B32E"/>
<path d="M7.04691 36.122C6.78516 35.9332 5.43488 35.0423 4.72435 36.1878C4.28579 36.895 4.52691 37.5234 5.24925 37.9576C5.24935 37.9577 5.25 37.9581 5.25 37.9581C7.76522 39.4737 12.1779 42.6384 16.0503 48C16.0503 47.9999 12.8464 40.526 7.04691 36.122Z" fill="#F9B32E"/>
<path d="M13.9973 18.3887C14.0552 18.2161 14.011 18.2298 12.8806 17.1082C13.1667 15.5244 13.2065 15.5264 13.0613 15.4189C12.9152 15.3107 12.9152 15.3565 11.4984 16.0853C10.0812 15.3243 10.0947 15.2865 9.94753 15.3914C9.7995 15.4974 9.84319 15.5116 10.0984 17.0837L9.01669 18.1196C8.88553 18.245 8.95537 18.4674 9.13509 18.4952L10.6153 18.7237C11.3144 20.1724 11.2808 20.1949 11.462 20.1967C11.644 20.1981 11.617 20.1612 12.3347 18.7389L13.8187 18.5367C13.9015 18.5253 13.9708 18.468 13.9973 18.3887Z" fill="#D34646"/>
<path d="M12.0889 18.313C10.4991 18.0675 10.487 18.1059 10.4327 17.9335C10.3781 17.7598 10.4213 17.7749 11.5719 16.673L11.4743 16.0722C10.0857 15.3266 10.0947 15.2863 9.94763 15.3912C9.79959 15.4973 9.84328 15.5114 10.0985 17.0835C8.93672 18.1961 8.90503 18.1716 8.95922 18.344C9.01388 18.5175 9.04097 18.4804 10.6154 18.7235C11.2931 20.128 11.2625 20.101 11.3333 20.1536C11.4429 20.2345 11.5989 20.1971 11.66 20.076L12.3141 18.7797L12.0889 18.313Z" fill="#F9B32E"/>
<path d="M23.7869 13.3407L23.7858 13.3402C22.0903 12.4489 21.7594 12.4007 19.9717 13.3405L19.9713 13.3406C18.4333 14.1491 18.4599 15.2895 18.4974 15.5933C19.3852 21.0848 21.0586 32.2459 21.8788 42.9903C22.6964 32.2819 24.3614 21.1596 25.2515 15.6488C25.352 15.021 25.4634 14.2222 23.7869 13.3407Z" fill="#F9B32E"/>
<path d="M20.3913 15.5933C20.3537 15.2895 20.3272 14.1491 21.8651 13.3406L21.8655 13.3405C22.2445 13.1412 22.5577 12.9868 22.8326 12.8751C21.8735 12.4759 21.3649 12.6081 19.9717 13.3405L19.9713 13.3406C18.4333 14.1491 18.4599 15.2895 18.4974 15.5933C19.3852 21.0848 21.0586 32.2459 21.8788 42.9903C22.1301 39.699 22.4615 36.3688 22.8258 33.1744C22.0009 25.9403 21.007 19.4025 20.3913 15.5933Z" fill="#F9B32E"/>
<path d="M36.2115 23.757C36.6051 23.231 36.5027 22.8016 36.4326 22.628L35.9877 21.7062C35.7773 21.2706 35.4165 21.1492 35.257 21.116L35.177 21.1037H35.1769C35.1769 21.1037 35.1769 21.1037 34.3445 20.9751C33.5579 20.8537 33.1276 21.5298 33.0824 21.6048C28.1089 30.3261 25.4896 44.5601 25.4896 44.5601C28.8989 34.3529 33.4634 27.3674 36.2106 23.7583C36.2109 23.7579 36.2111 23.7574 36.2115 23.757Z" fill="#F9B32E"/>
</g>
<defs>
<clipPath id="clip0_2651_10509">
<rect width="48" height="48" fill="white"/>
</clipPath>
</defs>
</svg>
