<svg width="36" height="34" viewBox="0 0 36 34" fill="none" xmlns="http://www.w3.org/2000/svg">
<path fill-rule="evenodd" clip-rule="evenodd" d="M17.8768 34C27.4552 34 35.2201 26.3888 35.2201 17C35.2201 7.61116 27.4552 0 17.8768 0C8.29836 0 0.533493 7.61116 0.533493 17C0.533493 26.3888 8.29836 34 17.8768 34Z" fill="#D7EAFC"/>
<g clip-path="url(#clip0_301_12498)">
<path d="M14.5704 22.3305H13.8478C13.704 22.3305 13.5662 22.2745 13.4645 22.1749C13.3629 22.0753 13.3058 21.9402 13.3058 21.7993V18.6118C13.3058 18.4709 13.3629 18.3357 13.4645 18.2361C13.5662 18.1365 13.704 18.0805 13.8478 18.0805H14.5704C14.7141 18.0805 14.852 18.1365 14.9536 18.2361C15.0553 18.3357 15.1124 18.4709 15.1124 18.6118V21.7993C15.1124 21.9402 15.0553 22.0753 14.9536 22.1749C14.852 22.2745 14.7141 22.3305 14.5704 22.3305Z" fill="#328BE0"/>
<path d="M19.6289 22.3299H18.9062C18.7625 22.3299 18.6246 22.2739 18.523 22.1743C18.4214 22.0747 18.3643 21.9395 18.3643 21.7986V16.4861C18.3643 16.3452 18.4214 16.2101 18.523 16.1105C18.6246 16.0109 18.7625 15.9549 18.9062 15.9549H19.6289C19.7726 15.9549 19.9105 16.0109 20.0121 16.1105C20.1138 16.2101 20.1709 16.3452 20.1709 16.4861V21.7986C20.1709 21.9395 20.1138 22.0747 20.0121 22.1743C19.9105 22.2739 19.7726 22.3299 19.6289 22.3299Z" fill="#328BE0"/>
<path d="M22.1581 22.3302H21.4355C21.2917 22.3302 21.1539 22.2742 21.0522 22.1746C20.9506 22.0749 20.8935 21.9398 20.8935 21.7989V14.0073C20.8935 13.8664 20.9506 13.7312 21.0522 13.6316C21.1539 13.532 21.2917 13.476 21.4355 13.476H22.1581C22.3018 13.476 22.4397 13.532 22.5413 13.6316C22.643 13.7312 22.7001 13.8664 22.7001 14.0073V21.7989C22.7001 21.9398 22.643 22.0749 22.5413 22.1746C22.4397 22.2742 22.3018 22.3302 22.1581 22.3302Z" fill="#328BE0"/>
<path d="M17.0996 22.33H16.377C16.2333 22.33 16.0954 22.2741 15.9938 22.1744C15.8921 22.0748 15.835 21.9397 15.835 21.7988V12.2363C15.835 12.0954 15.8921 11.9603 15.9938 11.8606C16.0954 11.761 16.2333 11.705 16.377 11.705H17.0996C17.2434 11.705 17.3812 11.761 17.4829 11.8606C17.5845 11.9603 17.6416 12.0954 17.6416 12.2363V21.7988C17.6416 21.9397 17.5845 22.0748 17.4829 22.1744C17.3812 22.2741 17.2434 22.33 17.0996 22.33Z" fill="#328BE0"/>
</g>
<defs>
<clipPath id="clip0_301_12498">
<rect width="11.5622" height="11.3333" fill="white" transform="translate(12.2218 11.3511)"/>
</clipPath>
</defs>
</svg>
