<svg width="19" height="18" viewBox="0 0 19 18" fill="none" xmlns="http://www.w3.org/2000/svg">
<path d="M3.8274 17.4379H2.67968C2.45139 17.4379 2.23244 17.349 2.07101 17.1908C1.90958 17.0326 1.81889 16.818 1.81889 16.5942V11.5317C1.81889 11.3079 1.90958 11.0933 2.07101 10.9351C2.23244 10.7768 2.45139 10.6879 2.67968 10.6879H3.8274C4.05569 10.6879 4.27464 10.7768 4.43607 10.9351C4.5975 11.0933 4.68819 11.3079 4.68819 11.5317V16.5942C4.68819 16.818 4.5975 17.0326 4.43607 17.1908C4.27464 17.349 4.05569 17.4379 3.8274 17.4379Z" fill="#328BE0"/>
<path d="M11.8615 17.4369H10.7137C10.4855 17.4369 10.2665 17.3481 10.1051 17.1898C9.94365 17.0316 9.85296 16.817 9.85296 16.5932V8.1557C9.85296 7.93192 9.94365 7.71731 10.1051 7.55908C10.2665 7.40085 10.4855 7.31195 10.7137 7.31195H11.8615C12.0898 7.31195 12.3087 7.40085 12.4701 7.55908C12.6316 7.71731 12.7223 7.93192 12.7223 8.1557V16.5932C12.7223 16.817 12.6316 17.0316 12.4701 17.1898C12.3087 17.3481 12.0898 17.4369 11.8615 17.4369Z" fill="#328BE0"/>
<path d="M15.8785 17.4374H14.7307C14.5024 17.4374 14.2835 17.3485 14.1221 17.1903C13.9606 17.032 13.8699 16.8174 13.8699 16.5937V4.21866C13.8699 3.99488 13.9606 3.78027 14.1221 3.62204C14.2835 3.4638 14.5024 3.37491 14.7307 3.37491H15.8785C16.1068 3.37491 16.3257 3.4638 16.4871 3.62204C16.6486 3.78027 16.7392 3.99488 16.7392 4.21866V16.5937C16.7392 16.8174 16.6486 17.032 16.4871 17.1903C16.3257 17.3485 16.1068 17.4374 15.8785 17.4374Z" fill="#328BE0"/>
<path d="M7.84443 17.4372H6.69671C6.46842 17.4372 6.24947 17.3483 6.08805 17.1901C5.92662 17.0318 5.83593 16.8172 5.83593 16.5934V1.40594C5.83593 1.18217 5.92662 0.967557 6.08805 0.809323C6.24947 0.65109 6.46842 0.562195 6.69671 0.562195H7.84443C8.07273 0.562195 8.29167 0.65109 8.4531 0.809323C8.61453 0.967557 8.70522 1.18217 8.70522 1.40594V16.5934C8.70522 16.8172 8.61453 17.0318 8.4531 17.1901C8.29167 17.3483 8.07273 17.4372 7.84443 17.4372Z" fill="#328BE0"/>
</svg>
