<svg width="37" height="38" viewBox="0 0 37 38" fill="none" xmlns="http://www.w3.org/2000/svg">
<path d="M20.243 0.222168V6.15967H17.8993C16.6048 6.15967 15.5555 7.20896 15.5555 8.50342C15.5555 9.79787 16.6048 10.8472 17.8993 10.8472H20.243V16.7065H27.2743V13.1909C27.2743 12.5444 27.7996 12.019 28.4462 12.019C29.0927 12.019 29.618 12.5444 29.618 13.1909V16.7065H36.7274V0.222168H20.243Z" fill="#39BD78"/>
<path d="M5.3125 22.6875C5.3125 23.982 6.3618 25.0312 7.65625 25.0312C8.9507 25.0312 10 23.982 10 22.6875V20.3438H15.3125V14.4844H12.9688C12.3216 14.4844 11.7969 13.9597 11.7969 13.3125C11.7969 12.6653 12.3216 12.1406 12.9688 12.1406H15.3125V5.10938H0V20.3438H5.3125V22.6875Z" fill="#39BD78"/>
<path d="M27.6562 22.6875V20.3438C27.6562 19.0493 26.607 18 25.3125 18C24.018 18 22.9688 19.0493 22.9688 20.3438V22.6875H17.6562V25.6562C20.2415 25.6562 22.3438 27.7585 22.3438 30.3438C22.3438 32.929 20.2415 35.0312 17.6562 35.0312V38H32.8906V22.6875H27.6562Z" fill="#39BD78"/>
<path d="M17.6562 32.6875C18.9507 32.6875 20 31.6382 20 30.3438C20 29.0493 18.9507 28 17.6562 28H15.3125V22.6875H12.3438C12.3438 25.2727 10.2415 27.375 7.65625 27.375C5.07102 27.375 2.96875 25.2727 2.96875 22.6875H0V38H15.3125V32.6875H17.6562Z" fill="#39BD78"/>
</svg>
