<svg width="20" height="20" viewBox="0 0 20 20" fill="none" xmlns="http://www.w3.org/2000/svg">
<path d="M16.1385 3.33333H3.36147C2.05934 3.33333 1 4.5448 1 6.03392V13.9661C1 15.4552 2.05934 16.6667 3.36147 16.6667H16.1385C17.4407 16.6667 18.5 15.4552 18.5 13.9661V6.03392C18.5 4.5448 17.4407 3.33333 16.1385 3.33333ZM3.36147 4.97717H16.1385C16.6481 4.97717 17.0626 5.45122 17.0626 6.03392V6.67318H2.43742V6.03392C2.43742 5.45122 2.85194 4.97717 3.36147 4.97717ZM16.1385 15.0228H3.36147C2.85194 15.0228 2.43742 14.5488 2.43742 13.9661V8.31702H17.0626V13.9661C17.0626 14.5488 16.6481 15.0228 16.1385 15.0228Z" fill="#328BE0"/>
<path d="M4.99342 10.4304H3.74179C3.28815 10.4304 2.92041 10.7981 2.92041 11.2518C2.92041 11.7054 3.28815 12.0731 3.74179 12.0731H4.99342C5.44706 12.0731 5.8148 11.7054 5.8148 11.2518C5.8148 10.7981 5.44706 10.4304 4.99342 10.4304Z" fill="#328BE0"/>
</svg>
