<svg width="42" height="41" viewBox="0 0 42 41" fill="none" xmlns="http://www.w3.org/2000/svg">
<path d="M20.6213 10.3106C23.4685 10.3106 25.7766 8.00251 25.7766 5.15531C25.7766 2.30811 23.4685 0 20.6213 0C17.7741 0 15.4659 2.30811 15.4659 5.15531C15.4659 8.00251 17.7741 10.3106 20.6213 10.3106Z" fill="#328BE0"/>
<path d="M34.3688 15.4659C37.216 15.4659 39.5241 13.1578 39.5241 10.3106C39.5241 7.46339 37.216 5.15527 34.3688 5.15527C31.5216 5.15527 29.2134 7.46339 29.2134 10.3106C29.2134 13.1578 31.5216 15.4659 34.3688 15.4659Z" fill="#328BE0"/>
<path d="M6.87376 15.4659C9.72096 15.4659 12.0291 13.1578 12.0291 10.3106C12.0291 7.46339 9.72096 5.15527 6.87376 5.15527C4.02656 5.15527 1.71844 7.46339 1.71844 10.3106C1.71844 13.1578 4.02656 15.4659 6.87376 15.4659Z" fill="#328BE0"/>
<path d="M37.8056 15.4659H30.9319C30.2238 15.4658 29.5332 15.6858 28.9557 16.0955C31.2102 16.7709 33.1169 18.2907 34.2779 20.3379C35.3554 22.2576 35.7865 24.724 35.1421 27.495H39.5241C39.9798 27.495 40.4169 27.314 40.7392 26.9917C41.0615 26.6694 41.2425 26.2323 41.2425 25.7766V18.9028C41.2414 17.9916 40.879 17.1181 40.2347 16.4738C39.5904 15.8295 38.7168 15.467 37.8056 15.4659Z" fill="#328BE0"/>
<path d="M20.6034 16.7823C22.7504 15.7721 25.1466 15.4141 27.495 15.753V13.7475C27.4939 12.8364 27.1315 11.9628 26.4872 11.3185C25.8429 10.6742 24.9693 10.3117 24.0581 10.3107H17.1844C16.2732 10.3117 15.3996 10.6742 14.7553 11.3185C14.111 11.9628 13.7486 12.8364 13.7475 13.7475V15.6969C15.8711 15.382 18.2193 15.7379 20.6034 16.7823Z" fill="#328BE0"/>
<path d="M8.68907 18.1768C9.68748 17.2043 10.8977 16.4764 12.2248 16.0502C11.6593 15.6688 10.9927 15.4653 10.3106 15.4659H3.43688C2.52569 15.467 1.65214 15.8295 1.00783 16.4738C0.363525 17.1181 0.00108011 17.9916 0 18.9028L0 25.7766C0 26.2323 0.181049 26.6694 0.503319 26.9917C0.825589 27.314 1.26268 27.495 1.71844 27.495H6.0605C5.35036 23.9733 6.27445 20.5156 8.68907 18.1768Z" fill="#328BE0"/>
<path d="M27.8078 17.5606C27.1464 17.4095 26.47 17.3338 25.7916 17.3348C24.2445 17.3516 22.7184 17.6962 21.3142 18.3461L20.6163 18.6632L19.9141 18.3556C18.4557 17.6874 16.8745 17.329 15.2705 17.303C13.2671 17.2649 11.3304 18.0227 9.88491 19.4102C7.35429 21.8622 6.83081 25.8641 8.54925 29.6062L8.56279 29.6364C9.57752 31.9643 11.9019 34.5851 15.4716 37.4266C16.8753 38.5435 18.1714 39.4496 19.0201 40.0175C19.4809 40.3017 19.8349 40.5331 20.1208 40.7189C20.2711 40.8166 20.4327 40.9223 20.5581 41.0001C20.6428 40.9706 20.7405 40.9356 20.8346 40.9015C33.551 33.3002 35.2237 25.5326 32.7803 21.1789C31.7518 19.3482 29.9868 18.0632 27.8078 17.5606ZM25.6924 25.7859H19.6779C19.45 25.7859 19.2314 25.8764 19.0703 26.0375C18.9092 26.1987 18.8186 26.4172 18.8186 26.6451C18.8186 26.873 18.9092 27.0915 19.0703 27.2526C19.2314 27.4138 19.45 27.5043 19.6779 27.5043H21.3963C22.4617 27.5032 23.4895 27.8981 24.2801 28.6122C25.0708 29.3262 25.5679 30.3086 25.675 31.3686C25.782 32.4286 25.4914 33.4906 24.8595 34.3484C24.2277 35.2062 23.2996 35.7986 22.2555 36.0106V37.8149H18.8186V36.0965H15.3818V32.6596H21.3963C21.6242 32.6596 21.8427 32.5691 22.0039 32.408C22.165 32.2468 22.2555 32.0283 22.2555 31.8004C22.2555 31.5725 22.165 31.354 22.0039 31.1928C21.8427 31.0317 21.6242 30.9412 21.3963 30.9412H19.6779C18.6125 30.9422 17.5847 30.5474 16.794 29.8333C16.0034 29.1192 15.5063 28.1368 15.3992 27.0768C15.2921 26.0168 15.5827 24.9549 16.2146 24.0971C16.8465 23.2393 17.7746 22.6469 18.8186 22.4349V20.6305H22.2555V22.349H25.6924V25.7859Z" fill="#328BE0"/>
</svg>
