<svg width="18" height="20" viewBox="0 0 18 20" fill="none" xmlns="http://www.w3.org/2000/svg">
<path fill-rule="evenodd" clip-rule="evenodd" d="M5.09458 20C4.69327 20 4.31241 19.968 3.95395 19.905L3.74161 19.864C1.4321 19.371 0.0898438 17.555 0.0898438 14.791V5.209C0.0898438 4.875 0.109325 4.555 0.148288 4.249C0.488236 1.564 2.28538 0 5.09458 0H12.6192C15.7323 0 17.5938 1.92 17.623 5.132V5.209V14.791C17.623 18.048 15.7567 20 12.6192 20H5.09458ZM5.09458 1.457C2.70228 1.457 1.48957 2.72 1.48957 5.209V14.791C1.48957 17.28 2.70228 18.543 5.09458 18.543H12.6105C15.0018 18.543 16.2067 17.28 16.2067 14.791V5.209C16.2067 2.72 15.0018 1.457 12.6105 1.457H5.09458ZM13.0507 14.234C13.0507 13.834 12.74 13.51 12.3562 13.51H5.33225C4.94847 13.51 4.63677 13.834 4.63677 14.234C4.63677 14.634 4.94847 14.958 5.33225 14.958H12.3562C12.74 14.958 13.0507 14.634 13.0507 14.234ZM12.3562 9.271C12.6241 9.241 12.8861 9.373 13.0293 9.61C13.1725 9.849 13.1725 10.151 13.0293 10.39C12.8861 10.627 12.6241 10.759 12.3562 10.729H5.33225C4.97575 10.687 4.70593 10.374 4.70593 10C4.70593 9.626 4.97575 9.312 5.33225 9.271H12.3562ZM8.6392 5.771C8.6392 5.397 8.36938 5.083 8.01288 5.042H5.34102C4.98354 5.083 4.71372 5.397 4.71372 5.771C4.71372 6.144 4.98354 6.458 5.34102 6.499H8.01288C8.36938 6.458 8.6392 6.144 8.6392 5.771Z" fill="#01789A"/>
</svg>
