<svg width="18" height="14" viewBox="0 0 18 14" fill="none" xmlns="http://www.w3.org/2000/svg">
<path fill-rule="evenodd" clip-rule="evenodd" d="M5.74805 6.99998C5.74805 8.77776 7.20333 10.2242 9.00008 10.2242C10.7887 10.2242 12.244 8.77776 12.244 6.99998C12.244 5.21412 10.7887 3.76766 9.00008 3.76766C7.20333 3.76766 5.74805 5.21412 5.74805 6.99998ZM13.7806 2.03836C15.2033 3.13735 16.4147 4.74543 17.2846 6.75755C17.3497 6.91109 17.3497 7.08887 17.2846 7.23432C15.5448 11.2586 12.4472 13.6666 9.00008 13.6666H8.99195C5.55293 13.6666 2.45537 11.2586 0.715529 7.23432C0.650488 7.08887 0.650488 6.91109 0.715529 6.75755C2.45537 2.73331 5.55293 0.333313 8.99195 0.333313H9.00008C10.7237 0.333313 12.3578 0.931293 13.7806 2.03836ZM9.00106 9.01032C10.1149 9.01032 11.0254 8.10527 11.0254 6.9982C11.0254 5.88305 10.1149 4.978 9.00106 4.978C8.9035 4.978 8.80593 4.98608 8.7165 5.00224C8.68398 5.89113 7.95228 6.60224 7.04984 6.60224H7.00919C6.9848 6.73153 6.96854 6.86083 6.96854 6.9982C6.96854 8.10527 7.87911 9.01032 9.00106 9.01032Z" fill="#39BD78"/>
</svg>
