<svg width="14" height="14" viewBox="0 0 14 14" fill="none" xmlns="http://www.w3.org/2000/svg">
<path fill-rule="evenodd" clip-rule="evenodd" d="M2.85545 5.72828C4.24802 5.72828 5.37764 4.59555 5.37764 3.19821C5.37764 1.80013 4.24802 0.666656 2.85545 0.666656C1.46287 0.666656 0.333252 1.80013 0.333252 3.19821C0.333252 4.59555 1.46287 5.72828 2.85545 5.72828ZM8.62272 10.7284C8.62272 9.33036 9.75233 8.19837 11.1449 8.19837C12.5375 8.19837 13.6664 9.33036 13.6664 10.7284C13.6664 12.1258 12.5375 13.2592 11.1449 13.2592C9.75233 13.2592 8.62272 12.1258 8.62272 10.7284ZM1.3385 9.72042H5.72216C6.27622 9.72042 6.72659 10.1723 6.72659 10.7283C6.72659 11.2843 6.27622 11.7369 5.72216 11.7369H1.3385C0.783691 11.7369 0.333326 11.2843 0.333326 10.7283C0.333326 10.1723 0.783691 9.72042 1.3385 9.72042ZM12.6622 2.19012C13.2162 2.19012 13.6666 2.64203 13.6666 3.19799C13.6666 3.75395 13.2162 4.20585 12.6622 4.20585H8.2785C7.72369 4.20585 7.27332 3.75395 7.27332 3.19799C7.27332 2.64203 7.72369 2.19012 8.2785 2.19012H12.6622Z" fill="#121528"/>
</svg>
