<svg width="20" height="20" viewBox="0 0 20 20" fill="none" xmlns="http://www.w3.org/2000/svg">
<path d="M10.5859 5.3125C10.5859 2.38316 8.22027 0 5.3125 0C2.39684 0 0 2.39762 0 5.3125C0 8.02371 2.07195 10.2632 4.72656 10.5537V14.1016H2.96875C2.64516 14.1016 2.38281 14.3639 2.38281 14.6875C2.38281 15.0111 2.64516 15.2734 2.96875 15.2734H4.72656V17.0312C4.72656 17.3548 4.98891 17.6172 5.3125 17.6172C5.63609 17.6172 5.89844 17.3548 5.89844 17.0312V15.2734H7.65625C7.97984 15.2734 8.24219 15.0111 8.24219 14.6875C8.24219 14.3639 7.97984 14.1016 7.65625 14.1016H5.89844V10.5532C8.53148 10.2608 10.5859 8.02223 10.5859 5.3125ZM1.17188 5.3125C1.17188 3.02934 3.02937 1.17188 5.3125 1.17188C7.5741 1.17188 9.41406 3.02934 9.41406 5.3125C9.41406 7.5741 7.5741 9.41406 5.3125 9.41406C3.02937 9.41406 1.17188 7.5741 1.17188 5.3125Z" fill="#328BE0"/>
<path d="M15.2734 9.44667V4.3837L16.617 5.72717C16.8457 5.956 17.2168 5.95604 17.4456 5.72717C17.6744 5.49835 17.6744 5.12737 17.4456 4.89854L15.1018 2.55479C14.873 2.32596 14.502 2.32596 14.2732 2.55479L11.9295 4.89854C11.7006 5.12737 11.7006 5.49835 11.9295 5.72717C12.1582 5.956 12.5293 5.956 12.7581 5.72717L14.1016 4.3837V9.44717C11.4685 9.7396 9.41406 11.9782 9.41406 14.6879C9.41406 17.6172 11.7797 20.0004 14.6875 20.0004C17.6032 20.0004 20 17.6028 20 14.6879C20 11.9767 17.928 9.73714 15.2734 9.44667ZM14.6875 18.8285C12.4259 18.8285 10.5859 16.971 10.5859 14.6879C10.5859 12.4263 12.4259 10.5863 14.6875 10.5863C16.9706 10.5863 18.8281 12.4263 18.8281 14.6879C18.8281 16.971 16.9706 18.8285 14.6875 18.8285Z" fill="#328BE0"/>
</svg>
