<svg width="178" height="26" viewBox="0 0 178 26" fill="none" xmlns="http://www.w3.org/2000/svg">
<path d="M0.303101 16.222C0.515988 15.9027 0.899184 15.6046 1.21851 15.3279C1.94233 14.7318 2.64486 14.1144 3.34739 13.497C4.53956 12.4965 5.94461 11.4746 6.92389 10.2612C7.96704 9.47348 9.01018 7.9194 13.9705 7.9194C14.4814 9.66508 15.2691 12.092 19.1862 16.1581C19.1862 16.1581 18.9733 16.2646 18.9307 16.2859C18.7178 16.3923 18.4624 16.4775 18.2069 16.5626C17.3341 16.8607 16.4612 17.0735 15.5458 17.2226C14.2259 17.4142 12.8634 17.4354 11.5223 17.329C10.99 17.2864 10.4365 17.2013 9.9256 17.0736C9.64885 17.031 9.35081 16.9458 9.09534 16.8819C8.90374 16.8394 8.73343 16.8181 8.56312 16.7329C8.37152 16.6265 8.2225 16.4775 8.0309 16.3923C7.71157 16.2433 7.39224 16.2646 7.0942 16.4987C6.68971 16.7755 6.49811 16.8181 6.17878 16.52C5.85945 16.222 5.66786 16.9884 5.5827 17.0097C5.51884 17.031 5.36981 17.2013 5.09306 16.9458C4.81631 16.669 4.15636 16.7542 4.13507 17.2226C4.00734 17.5845 3.21965 17.478 3.07063 17.2864C2.92161 17.0948 2.53842 17.0097 2.17651 17.2651C1.87847 17.4567 1.60171 17.7761 1.55913 18.138C1.51656 18.3509 1.55913 18.6063 1.623 18.8192C1.66558 18.9682 1.75073 19.096 1.83589 19.2237C1.87846 19.2876 1.94233 19.3727 2.0062 19.4366C2.04878 19.4792 2.07006 19.5643 2.15522 19.5856C2.17651 19.5856 2.17651 19.6069 2.1978 19.6069C2.49584 19.6708 2.87903 19.7346 3.15579 19.5856C3.15579 19.5856 3.66672 19.3089 3.96476 19.692C4.24151 20.0327 4.90146 20.1178 5.1995 19.692C5.47626 19.2663 6.07234 19.7133 6.07234 19.7133C6.07234 19.7133 6.37039 20.054 6.86003 19.7346C6.96647 19.3089 7.62642 19.3088 7.90317 19.394C8.17992 19.4579 8.43539 19.0321 8.43539 19.0321C8.43539 19.0321 8.77601 18.8831 9.09534 19.2024C9.60627 19.2024 9.75529 18.9044 9.9256 18.6276C10.0959 18.3509 10.692 18.6063 10.7346 18.9257C10.99 19.1811 11.5435 19.0321 11.6287 18.7979C11.6926 18.585 11.799 18.287 12.2886 18.3722C12.7783 18.4786 12.6931 18.8618 13.0763 18.7128C13.4808 18.5638 13.5021 18.2019 13.6511 18.138C13.8001 18.0954 14.0982 18.0315 14.3111 18.3509C14.5665 18.6489 15.0349 18.5212 15.12 18.3296C15.2052 18.138 15.3116 17.7335 15.7161 17.7548C16.1206 17.7761 15.8864 18.0315 16.1845 18.2018C16.4825 18.3509 16.7806 18.3296 17.1212 17.7973C17.4618 17.2864 18.0579 17.6058 18.0579 17.6058C18.0579 17.6058 18.6965 17.7122 18.952 17.2438C19.2288 16.7755 19.8674 16.52 20.3358 16.8819C20.8041 17.2226 21.4428 18.0741 23.4652 18.8192C23.4652 18.8192 21.8473 23.4176 14.6943 24.7588C7.54126 26.1 1.49527 21.2248 0.941762 20.4372C0.622431 19.9688 0.62243 19.3088 0.686297 18.7553C0.707585 18.5637 0.79274 18.3934 0.79274 18.1806C0.771451 18.1806 0.771452 18.1806 0.750163 18.1806C0.622431 18.1167 0.494699 18.0102 0.409544 17.9038C0.345678 17.8399 0.260523 17.7548 0.196657 17.6483C0.0263473 17.4567 -0.0162304 17.1374 0.00505827 16.8819C0.0689244 16.6691 0.175368 16.4136 0.303101 16.222Z" fill="#023E4F"/>
<path d="M34.7908 9.96312C31.5975 -0.170309 23.8058 0.319327 22.2518 0.404482C20.6764 0.510925 15.8013 0.234172 14.5878 0.404482C13.3531 0.574791 13.2892 2.74624 13.2892 2.74624C13.2892 2.74624 12.3525 3.61909 12.2035 3.981C11.799 4.9177 12.1609 6.68465 12.1609 6.68465C12.2886 7.68522 12.8209 8.66451 13.2892 9.53734C13.864 10.6018 14.5239 11.6024 15.1839 12.6242C15.929 13.7312 16.5677 14.7957 17.5895 15.6898C18.3772 16.371 19.25 16.9671 20.1442 17.478C22.1453 18.6063 24.3593 19.3727 26.6798 19.4153C27.9997 19.4366 29.3622 19.3727 30.6182 18.9895C31.2995 18.7979 31.9807 18.4999 32.5129 18.0315C32.7258 17.8399 32.96 17.6058 33.0877 17.3503C33.1941 17.0948 33.109 16.8394 33.109 16.5839C33.109 16.3072 33.109 16.0517 33.109 15.7749C33.109 15.6685 33.109 15.3704 33.2154 15.3066C33.3432 15.2001 34.1096 14.8169 34.5141 14.5828C34.6844 14.4763 34.8121 14.306 34.8547 14.1144C34.9398 13.3906 35.1314 11.6449 34.7908 9.96312ZM31.5336 15.1789C31.2143 15.1789 30.8098 15.2001 30.6608 15.0085C30.5118 14.8169 30.086 14.7957 29.788 14.9873C29.3409 15.115 28.9577 14.5402 28.9577 14.5402C28.9577 14.5402 28.8513 14.3273 28.2339 14.3486C27.6165 14.3699 27.361 14.1783 27.1482 13.8377C26.9566 13.497 26.2327 13.6886 26.105 13.6461C25.9773 13.6035 25.5941 13.348 25.3812 12.9009C25.1896 12.4539 24.4232 12.6029 24.2742 12.5603C24.1252 12.5178 24.1252 11.7727 23.6142 11.6449C23.1033 11.5172 22.6775 11.6662 22.5498 11.432C22.4221 11.1553 22.5285 10.4315 22.124 10.4527C21.6982 10.474 21.0809 10.3037 20.868 9.9844C20.6764 9.66507 20.8467 9.47347 20.3996 9.36703C19.9526 9.26058 19.5268 9.04771 19.4416 8.8774C19.3565 8.70709 18.9733 8.57935 18.9733 8.57935L18.143 8.47291C18.143 8.47291 17.845 8.43032 17.6747 7.98326C17.5044 7.5362 16.8444 7.68521 16.6315 7.57877C16.4399 7.47232 16.4186 6.81238 15.8864 6.70594C15.3755 6.59949 14.8859 6.19501 14.8007 5.8331C14.7155 5.4712 14.6304 5.23701 14.1408 5.00284C13.6724 4.74737 13.8427 4.78995 13.7363 4.4919C13.7363 4.4919 13.1189 4.06615 13.4595 3.44878C13.8001 2.81012 14.4175 2.76752 14.7368 2.76752C15.0562 2.76752 15.5458 2.87397 15.7161 3.1933C15.8864 3.51263 15.8864 3.91711 16.589 3.95969C17.2702 3.98098 17.5469 4.55578 17.5469 4.55578L18.3772 4.87511C18.3772 4.87511 18.2282 4.91768 18.7178 5.32217C19.2075 5.68408 19.6332 5.62022 19.6332 5.62022C19.6332 5.62022 19.9739 5.74794 20.1655 6.38661C20.3571 7.02527 24.7212 12.5178 27.4036 13.3054C30.0647 14.0931 31.1717 14.455 31.3633 14.7105C31.7252 14.8382 31.853 15.1789 31.5336 15.1789Z" fill="#01789A"/>
<path d="M62.828 2.55465V0H62.381C61.4443 0 60.4863 0 59.5283 0C58.5916 0 57.6336 0 56.8246 0H56.633V0.766389C56.6117 2.59722 56.6117 4.40677 56.5904 6.2376C56.5479 8.64323 55.0789 10.176 52.6733 10.4528C51.1405 10.6231 49.5865 10.8147 47.8408 11.0488C47.8408 7.47234 47.8408 3.83197 47.8408 0.212887C45.6906 0.212887 43.7746 0.212887 41.8799 0.212887C41.8799 8.60064 41.8799 16.7968 41.8799 25.0568C43.9024 25.0568 45.7971 25.0568 47.6279 25.0568C47.7556 24.8865 47.8195 24.8439 47.8195 24.7588C47.8408 23.2047 47.8408 21.6719 47.8834 20.1178C47.9472 17.6271 49.7355 15.924 52.2475 15.924C54.7383 15.924 56.5266 17.6483 56.5904 20.1391C56.6117 21.6719 56.5904 23.226 56.5904 24.8439C58.7193 24.8439 60.6779 24.8439 62.7003 24.8439C62.8067 20.6501 63.339 16.4988 59.6986 13.3054C62.232 10.1547 63.2751 6.66337 62.828 2.55465Z" fill="white"/>
<path d="M102.574 0.574799C102.574 1.49021 102.574 2.27789 102.574 3.04428C102.574 7.30203 102.617 11.5598 102.553 15.8388C102.51 18.0528 100.381 19.7346 97.9757 19.6282C95.5914 19.5218 93.6328 17.7122 93.7393 15.6685C93.8457 13.5396 95.9746 11.7726 98.4228 12.0281C99.4872 12.1346 100.488 12.6242 101.723 13.0074C101.723 11.4533 101.829 9.89925 101.68 8.36646C101.637 7.83425 100.956 7.00398 100.467 6.89754C96.4217 6.06728 92.8452 7.04655 89.9499 10.0057C86.7566 13.2416 86.7566 18.2444 89.886 21.5442C94.2502 26.1851 102.191 26.2277 106.427 21.5016C107.492 20.3094 108.514 18.6276 108.599 17.1161C108.876 11.6662 108.705 6.195 108.705 0.659933C106.598 0.574778 104.639 0.574799 102.574 0.574799Z" fill="white"/>
<path d="M126.29 6.98271C125.97 7.04658 125.608 7.5788 125.566 7.91942C125.502 9.62252 125.545 11.3256 125.545 13.1138C126.503 12.7094 127.163 12.3049 127.908 12.1346C129.824 11.7088 131.548 12.1772 132.761 13.7951C133.719 15.0511 133.698 16.4562 132.825 17.7548C131.825 19.3089 129.568 19.9901 127.631 19.4366C125.63 18.8405 124.629 17.5845 124.608 15.4769C124.587 11.6024 124.608 7.74911 124.608 3.87457C124.608 2.81013 124.608 1.7244 124.608 0.5961C122.458 0.5961 120.627 0.5961 118.477 0.5961C118.477 5.38606 118.732 9.96314 118.434 14.5189C117.987 21.0758 123.416 24.9504 128.866 25.0142C134.252 25.1207 139.084 21.459 139.616 16.8394C140.404 9.53734 132.506 5.27962 126.29 6.98271Z" fill="white"/>
<path d="M150.091 6.59952C144.023 7.32333 139.915 12.3688 141.171 17.6696C142.363 22.7789 149.218 26.4406 154.199 24.5885C154.561 24.4395 155.03 23.9285 155.072 23.5453C155.179 21.8422 155.115 20.1391 155.115 18.5212C153.88 18.9257 152.879 19.4153 151.836 19.5218C149.835 19.7772 147.962 18.5425 147.344 16.8181C146.748 15.2002 147.344 13.8803 148.622 12.901C150.133 11.7088 151.858 11.6024 153.603 12.3688C155.328 13.1351 156.073 14.5189 156.009 16.4136C155.966 19.2237 155.988 22.0338 155.988 24.8865C158.159 24.8865 160.032 24.8865 162.183 24.8865C162.183 22.2467 162.033 19.7772 162.204 17.3716C162.8 9.62251 155.817 5.91828 150.091 6.59952Z" fill="white"/>
<path d="M79.4971 15.4343C79.5184 17.0948 78.752 18.2657 77.3257 19.0534C74.1749 20.7991 70.641 18.7767 70.6197 15.1789C70.5984 12.3688 70.6197 9.55865 70.6197 6.74854C68.427 6.74854 66.5536 6.74854 64.4673 6.74854C64.4673 10.0696 64.4034 13.1777 64.4886 16.2646C64.5524 18.7766 65.7446 20.8204 67.6819 22.417C70.6623 24.8652 74.0898 25.3549 77.794 24.6311C78.2836 24.5246 78.7733 24.4182 79.2629 24.4395V25.1633H85.4792C85.4792 24.6736 85.4792 24.2053 85.4792 23.7156C85.4792 17.8187 85.4792 12.3262 85.4792 6.81239C83.4142 6.81239 81.5195 6.81239 79.4758 6.81239C79.4758 9.77152 79.4545 12.6029 79.4971 15.4343Z" fill="white"/>
<path d="M163.396 14.5828C162.991 17.9251 163.332 21.3526 163.332 24.8652C165.312 24.8652 167.228 24.8652 169.293 24.8652C169.293 22.0125 169.336 19.2663 169.272 16.52C169.229 14.5189 170.251 13.4119 171.869 12.3474C173.955 10.9637 175.829 9.28187 178 7.55748C171.443 4.91768 164.098 8.53676 163.396 14.5828Z" fill="white"/>
<path d="M110.493 24.844C112.495 24.844 114.474 24.844 116.454 24.844C116.454 18.7341 116.454 12.7307 116.454 6.72723C114.389 6.72723 112.495 6.72723 110.493 6.72723C110.493 12.7945 110.493 18.7554 110.493 24.844Z" fill="white"/>
<path d="M113.602 0.447063C111.941 0.404486 110.451 1.70312 110.43 3.23591C110.408 4.66225 111.75 5.96085 113.367 6.06729C115.028 6.17373 116.54 4.9177 116.625 3.4062C116.689 1.87341 115.262 0.510929 113.602 0.447063Z" fill="white"/>
</svg>
