<svg width="54" height="53" viewBox="0 0 54 53" fill="none" xmlns="http://www.w3.org/2000/svg">
<path d="M43.94 41.4868C44.2481 41.1352 44.6828 40.9191 45.1494 40.8859C45.6156 40.8528 46.0763 41.0046 46.4315 41.3094C46.7858 41.6131 47.0048 42.0458 47.0392 42.5112C47.0735 42.9767 46.9209 43.4369 46.6149 43.7893C43.4106 47.4874 39.2515 50.233 34.5918 51.7265C29.932 53.22 24.9519 53.4037 20.1948 52.2575C15.438 51.1112 11.0879 48.6789 7.61944 45.2269C2.70201 40.2196 -0.0367552 33.4708 0.000372619 26.4534C0.0371301 19.4352 2.84745 12.7161 7.81766 7.76059C12.7879 2.80521 19.5155 0.0156123 26.5339 6.56358e-05C33.5521 -0.0155158 40.2927 2.74363 45.285 7.67672C47.7581 10.1375 49.7202 13.0632 51.0578 16.2855C52.3958 19.5081 53.0831 22.9628 53.0802 26.4519C53.0822 30.5112 52.1513 34.5169 50.3593 38.1589C50.1516 38.5796 49.7844 38.9005 49.3393 39.0499C48.8942 39.1993 48.408 39.165 47.9881 38.9548C47.5586 38.7578 47.2294 38.3927 47.0776 37.9448C46.9261 37.4973 46.9653 37.0071 47.1862 36.5896C48.7397 33.4365 49.5399 29.9661 49.5231 26.4514C49.5016 20.3425 47.0592 14.4908 42.7311 10.1796C38.403 5.86853 32.5423 3.44837 26.4327 3.45031C20.3238 3.45231 14.4649 5.8763 10.1395 10.1904C6.34273 14.0196 4.00869 19.0588 3.54444 24.4309C3.08018 29.8034 4.51451 35.1683 7.59812 39.5919C10.6817 44.0155 15.2192 47.2178 20.42 48.641C25.6211 50.0641 31.1564 49.6178 36.0627 47.3805C39.0804 46.0037 41.7665 43.9932 43.9383 41.4865L43.94 41.4868Z" fill="#121528" fill-opacity="0.6"/>
<path d="M20.6907 25.3061C20.9644 25.6865 21.075 26.1611 20.9975 26.6234C20.92 27.086 20.6611 27.4983 20.2784 27.7688C19.8972 28.0369 19.4262 28.1448 18.9663 28.0688C18.5068 27.9925 18.0953 27.7388 17.8213 27.3621C17.1601 26.4663 16.6514 25.4678 16.3147 24.4067C15.9815 23.3563 15.8113 22.2611 15.8109 21.1593C15.7997 18.3405 16.9204 15.6353 18.9208 13.6501C21.4227 11.1138 25.0277 9.99834 28.5247 10.6783C32.0215 11.3587 34.9456 13.7444 36.314 17.0337C37.6824 20.323 37.3132 24.0787 35.3303 27.0384C33.3478 29.9981 30.0149 31.7688 26.4527 31.7552C25.8203 31.7552 25.2361 31.418 24.9201 30.8703C24.6037 30.3229 24.6037 29.6481 24.9201 29.1003C25.2362 28.5529 25.8203 28.2153 26.4527 28.2153C28.3269 28.2065 30.1212 27.4538 31.4412 26.123C32.7609 24.7917 33.4984 22.9915 33.4921 21.1173C33.4853 19.2427 32.7354 17.4476 31.4061 16.1259C30.0768 14.8042 28.2773 14.0643 26.4031 14.0683C24.5285 14.0723 22.7326 14.8202 21.409 16.1475C20.0857 17.4748 19.343 19.2731 19.3445 21.1477C19.3441 22.6407 19.8152 24.0962 20.6905 25.306L20.6907 25.3061Z" fill="#121528" fill-opacity="0.6"/>
<path d="M11.7616 39.0525C11.374 39.55 10.7504 39.8025 10.1259 39.7154C9.50104 39.6283 8.97086 39.2143 8.73398 38.6299C8.49706 38.0453 8.59015 37.379 8.97809 36.8819C12.1756 32.8186 16.6895 29.9968 21.7427 28.9017C26.7958 27.8065 32.073 28.5073 36.6664 30.8825C41.259 33.2578 44.8804 37.1596 46.9067 41.9165C47.0857 42.3444 47.0881 42.8255 46.9131 43.255C46.7381 43.6845 46.4001 44.0269 45.973 44.2079C45.5431 44.3964 45.0557 44.4076 44.6178 44.2378C44.1799 44.068 43.8267 43.732 43.6361 43.3029C42.201 39.9344 39.8067 37.0626 36.7514 35.045C33.6958 33.0273 30.1144 31.9531 26.4528 31.9562C23.6286 31.9487 20.8398 32.5835 18.2968 33.8121C15.7546 35.0499 13.5215 36.8405 11.7613 39.0528L11.7616 39.0525Z" fill="#121528" fill-opacity="0.6"/>
</svg>
