<svg width="18" height="18" viewBox="0 0 18 18" fill="none" xmlns="http://www.w3.org/2000/svg">
<path fill-rule="evenodd" clip-rule="evenodd" d="M1.49211 3.06044C1.75571 2.62399 3.20808 1.03647 4.24451 1.08439C4.55433 1.11007 4.8282 1.29749 5.05072 1.51486C5.56166 2.0138 7.0243 3.90084 7.10732 4.29794C7.3093 5.27184 6.14877 5.83325 6.50395 6.81486C7.40943 9.03053 8.96964 10.5907 11.1863 11.4952C12.1671 11.8504 12.7285 10.6899 13.7025 10.8928C14.0987 10.9758 15.9867 12.4383 16.4857 12.9493C16.7022 13.1709 16.8905 13.4456 16.9162 13.7554C16.9547 14.8466 15.2687 16.3194 14.94 16.5077C14.1646 17.0622 13.153 17.0528 11.9197 16.4794C8.47838 15.0477 2.97871 9.65184 1.52035 6.08058C0.962336 4.85421 0.923823 3.8358 1.49211 3.06044Z" stroke="#328BE0" stroke-width="1.5" stroke-linecap="round" stroke-linejoin="round"/>
</svg>
