<svg width="55" height="55" viewBox="0 0 55 55" fill="none" xmlns="http://www.w3.org/2000/svg">
<g filter="url(#filter0_b_332_17097)">
<circle cx="27.5" cy="27.5" r="27.5" fill="#F2F7FB" fill-opacity="0.3"/>
</g>
<path d="M28 16C21.3732 16 16 21.3732 16 28C16 34.6268 21.3732 40 28 40C34.6268 40 40 34.6268 40 28C40 21.3732 34.6268 16 28 16ZM31.8598 28.1848L26.0098 32.4411C25.9777 32.4641 25.9399 32.4779 25.9006 32.4808C25.8612 32.4838 25.8217 32.4758 25.7866 32.4578C25.7514 32.4399 25.7219 32.4125 25.7013 32.3788C25.6807 32.3452 25.6697 32.3065 25.6696 32.267V23.7598C25.6695 23.7202 25.6803 23.6814 25.7009 23.6476C25.7215 23.6138 25.7511 23.5864 25.7863 23.5684C25.8215 23.5503 25.8611 23.5424 25.9005 23.5455C25.94 23.5485 25.9778 23.5625 26.0098 23.5857L31.8598 27.8393C31.8875 27.8588 31.91 27.8847 31.9256 27.9148C31.9411 27.9448 31.9492 27.9782 31.9492 28.0121C31.9492 28.0459 31.9411 28.0793 31.9256 28.1093C31.91 28.1394 31.8875 28.1653 31.8598 28.1848Z" fill="#F2F7FB"/>
<defs>
<filter id="filter0_b_332_17097" x="-40" y="-40" width="135" height="135" filterUnits="userSpaceOnUse" color-interpolation-filters="sRGB">
<feFlood flood-opacity="0" result="BackgroundImageFix"/>
<feGaussianBlur in="BackgroundImageFix" stdDeviation="20"/>
<feComposite in2="SourceAlpha" operator="in" result="effect1_backgroundBlur_332_17097"/>
<feBlend mode="normal" in="SourceGraphic" in2="effect1_backgroundBlur_332_17097" result="shape"/>
</filter>
</defs>
</svg>
