<svg width="15" height="18" viewBox="0 0 15 18" fill="none" xmlns="http://www.w3.org/2000/svg">
<ellipse cx="7.64917" cy="5.06502" rx="3.98169" ry="3.98169" stroke="#328BE0" stroke-width="1.5" stroke-linecap="round" stroke-linejoin="round"/>
<path fill-rule="evenodd" clip-rule="evenodd" d="M1.33351 14.5845C1.33244 14.3046 1.39504 14.0281 1.51658 13.7759C1.89796 13.0132 2.97348 12.6089 3.86593 12.4258C4.50956 12.2885 5.16208 12.1967 5.81864 12.1512C7.0342 12.0444 8.25678 12.0444 9.47234 12.1512C10.1288 12.1972 10.7813 12.289 11.425 12.4258C12.3175 12.6089 13.393 12.975 13.7744 13.7759C14.0188 14.2899 14.0188 14.8867 13.7744 15.4006C13.393 16.2016 12.3175 16.5677 11.425 16.7431C10.7822 16.8862 10.1294 16.9805 9.47234 17.0254C8.48297 17.1092 7.48899 17.1245 6.49751 17.0711C6.26867 17.0711 6.04747 17.0711 5.81864 17.0254C5.16402 16.9811 4.51376 16.8867 3.87356 16.7431C2.97348 16.5677 1.90559 16.2016 1.51658 15.4006C1.39566 15.1456 1.33312 14.8668 1.33351 14.5845Z" stroke="#328BE0" stroke-width="1.5" stroke-linecap="round" stroke-linejoin="round"/>
</svg>
