<svg width="36" height="34" viewBox="0 0 36 34" fill="none" xmlns="http://www.w3.org/2000/svg">
<path fill-rule="evenodd" clip-rule="evenodd" d="M17.7632 34C27.3417 34 35.1065 26.3888 35.1065 17C35.1065 7.61116 27.3417 0 17.7632 0C8.18478 0 0.419922 7.61116 0.419922 17C0.419922 26.3888 8.18478 34 17.7632 34Z" fill="#FFC6C6"/>
<g clip-path="url(#clip0_327_13542)">
<path d="M12.7969 19.6737C12.7969 20.0024 12.9301 20.3177 13.1673 20.5502C13.4044 20.7827 13.7261 20.9132 14.0615 20.9132H21.6492C21.9846 20.9132 22.3062 20.7827 22.5434 20.5502C22.7806 20.3177 22.9138 20.0024 22.9138 19.6737V16.2648H12.7969V19.6737ZM14.2873 17.9914C14.2873 17.8153 14.3587 17.6463 14.4857 17.5218C14.6128 17.3973 14.7851 17.3273 14.9648 17.3273H16.0487C16.2284 17.3273 16.4007 17.3973 16.5278 17.5218C16.6548 17.6463 16.7262 17.8153 16.7262 17.9914V18.4341C16.7262 18.6102 16.6548 18.7791 16.5278 18.9036C16.4007 19.0282 16.2284 19.0981 16.0487 19.0981H14.9648C14.7851 19.0981 14.6128 19.0282 14.4857 18.9036C14.3587 18.7791 14.2873 18.6102 14.2873 18.4341V17.9914Z" fill="#D34646"/>
<path d="M21.6492 13.1213H14.0615C13.7261 13.1213 13.4044 13.2519 13.1673 13.4844C12.9301 13.7168 12.7969 14.0321 12.7969 14.3609V14.9364H22.9138V14.3609C22.9138 14.0321 22.7806 13.7168 22.5434 13.4844C22.3062 13.2519 21.9846 13.1213 21.6492 13.1213Z" fill="#D34646"/>
</g>
<defs>
<clipPath id="clip0_327_13542">
<rect width="11.5622" height="11.3333" fill="white" transform="translate(12.0742 11.3511)"/>
</clipPath>
</defs>
</svg>
