<svg width="55" height="55" viewBox="0 0 55 55" fill="none" xmlns="http://www.w3.org/2000/svg">
<g filter="url(#filter0_b_332_17092)">
<circle cx="27.5" cy="27.5" r="27.5" fill="#F2F7FB" fill-opacity="0.3"/>
</g>
<path d="M30.1829 15C28.3139 14.9984 26.4834 15.5307 24.9069 16.5344C23.3303 17.5381 22.0733 18.9713 21.2839 20.6654C20.4945 22.3594 20.2056 24.2437 20.451 26.0965C20.6965 27.9492 21.4662 29.6933 22.6696 31.1233C22.6111 31.153 22.5563 31.1894 22.5062 31.2317L15.2725 38.4656C15.1872 38.5479 15.1192 38.6464 15.0725 38.7553C15.0257 38.8642 15.0011 38.9813 15 39.0998C14.999 39.2183 15.0216 39.3358 15.0665 39.4455C15.1113 39.5552 15.1776 39.6548 15.2614 39.7386C15.3452 39.8224 15.4448 39.8887 15.5545 39.9335C15.6642 39.9784 15.7817 40.001 15.9002 40C16.0187 39.9989 16.1358 39.9743 16.2447 39.9275C16.3536 39.8808 16.4521 39.8128 16.5344 39.7275L23.7683 32.4938C23.8106 32.4437 23.847 32.3889 23.8767 32.3304C25.0853 33.3449 26.5206 34.0529 28.061 34.3946C29.6015 34.7363 31.2016 34.7015 32.7257 34.2932C34.2498 33.8849 35.653 33.1151 36.8163 32.049C37.9796 30.983 38.8687 29.6522 39.4083 28.1695C39.9478 26.6867 40.1219 25.0957 39.9157 23.5314C39.7095 21.967 39.1292 20.4755 38.2239 19.1832C37.3186 17.8908 36.115 16.8358 34.7153 16.1076C33.3155 15.3794 31.7607 14.9995 30.1829 15ZM30.1829 32.8493C28.5943 32.8493 27.0413 32.3782 25.7204 31.4956C24.3995 30.6131 23.37 29.3586 22.7621 27.8909C22.1542 26.4232 21.9951 24.8082 22.305 23.2501C22.615 21.692 23.3799 20.2608 24.5033 19.1375C25.6266 18.0142 27.0578 17.2492 28.6159 16.9393C30.174 16.6293 31.789 16.7884 33.2567 17.3963C34.7244 18.0043 35.9788 19.0338 36.8614 20.3547C37.744 21.6756 38.2151 23.2285 38.2151 24.8171C38.2127 26.9467 37.3657 28.9883 35.8599 30.4941C34.3541 31.9999 32.3124 32.8469 30.1829 32.8493Z" fill="white"/>
<path d="M32.8704 23.9245H31.0855V22.1395C31.0855 21.9028 30.9915 21.6758 30.8241 21.5085C30.6567 21.3411 30.4297 21.2471 30.193 21.2471C29.9563 21.2471 29.7293 21.3411 29.562 21.5085C29.3946 21.6758 29.3006 21.9028 29.3006 22.1395V23.9245H27.5156V25.7094Cnan nan nan nan 27.5156 25.7094H29.3006V27.4943C29.3006 27.731 29.3946 27.958 29.562 28.1254C29.7293 28.2928 29.9563 28.3868 30.193 28.3868C30.4297 28.3868 30.6567 28.2928 30.8241 28.1254C30.9915 27.958 31.0855 27.731 31.0855 27.4943V25.7094H32.8704Cnan nan nan nan 32.8704 25.7094V23.9245Z" fill="white"/>
<defs>
<filter id="filter0_b_332_17092" x="-40" y="-40" width="135" height="135" filterUnits="userSpaceOnUse" color-interpolation-filters="sRGB">
<feFlood flood-opacity="0" result="BackgroundImageFix"/>
<feGaussianBlur in="BackgroundImageFix" stdDeviation="20"/>
<feComposite in2="SourceAlpha" operator="in" result="effect1_backgroundBlur_332_17092"/>
<feBlend mode="normal" in="SourceGraphic" in2="effect1_backgroundBlur_332_17092" result="shape"/>
</filter>
</defs>
</svg>
