<svg width="14" height="12" viewBox="0 0 14 12" fill="none" xmlns="http://www.w3.org/2000/svg">
<path fill-rule="evenodd" clip-rule="evenodd" d="M4.0307 0.185287C4.14149 0.265261 4.32016 0.448965 4.32016 0.448965C5.01378 1.09905 6.05849 2.71596 6.39398 3.53629C6.401 3.53629 6.59996 4.02406 6.60776 4.25606V4.28694C6.60776 4.64247 6.40881 4.97504 6.08892 5.14528C5.95704 5.21547 5.63629 5.28074 5.48154 5.31223C5.43029 5.32266 5.39724 5.32939 5.3953 5.33136C4.9381 5.40104 4.23668 5.44696 3.46661 5.44696C2.6583 5.44696 1.92646 5.40104 1.47627 5.31552C1.46847 5.31552 1.05729 5.2308 0.919976 5.17616C0.7218 5.09143 0.554054 4.93624 0.447164 4.74303C0.370702 4.58863 0.333252 4.42551 0.333252 4.25606C0.340274 4.0779 0.454966 3.74533 0.508021 3.61389C0.843514 2.74684 1.94128 1.09113 2.61227 0.456883C2.68197 0.386146 2.76129 0.312041 2.81648 0.260476C2.84593 0.232964 2.86852 0.211868 2.8791 0.201124C3.04685 0.0696806 3.25283 0 3.47441 0C3.6718 0 3.86998 0.0617624 4.0307 0.185287ZM11.1523 4.77452C11.1523 5.12372 10.8738 5.40641 10.5297 5.40641C10.1856 5.40641 9.90711 5.12372 9.90711 4.77452L9.73546 1.72197C9.73546 1.27695 10.0912 0.916667 10.5297 0.916667C10.9682 0.916667 11.3232 1.27695 11.3232 1.72197L11.1523 4.77452ZM13.0799 6.82373C13.278 6.90925 13.4458 7.06366 13.5527 7.25687C13.6291 7.41127 13.6666 7.57439 13.6666 7.74464C13.6596 7.92201 13.5449 8.25538 13.491 8.38682C13.1563 9.2531 12.0578 10.9088 11.3876 11.5439C11.319 11.613 11.2412 11.6856 11.1861 11.737L11.1861 11.737C11.1553 11.7657 11.1316 11.7878 11.1207 11.7989C10.9522 11.9303 10.747 12 10.5262 12C10.3273 12 10.1291 11.9382 9.96913 11.8139C9.85834 11.7347 9.67967 11.551 9.67967 11.551C8.98528 10.9017 7.94135 9.28398 7.60585 8.46363C7.59805 8.46363 7.39988 7.97665 7.39208 7.74464V7.71376C7.39208 7.35743 7.59025 7.02486 7.91092 6.85461C8.04253 6.78515 8.36226 6.7197 8.51737 6.68795C8.56915 6.67735 8.60258 6.67051 8.60453 6.66853C9.06174 6.59885 9.76316 6.55292 10.5332 6.55292C11.3415 6.55292 12.0734 6.59885 12.5236 6.68436C12.5306 6.68436 12.9425 6.76909 13.0799 6.82373ZM3.47027 6.59369C3.1262 6.59369 2.84766 6.87637 2.84766 7.22556L2.67601 10.278C2.67601 10.7231 3.03179 11.0833 3.47027 11.0833C3.90876 11.0833 4.26375 10.7231 4.26375 10.278L4.09289 7.22556C4.09289 6.87637 3.81435 6.59369 3.47027 6.59369Z" fill="#121528"/>
</svg>
