<svg width="36" height="34" viewBox="0 0 36 34" fill="none" xmlns="http://www.w3.org/2000/svg">
<path fill-rule="evenodd" clip-rule="evenodd" d="M17.7007 34C27.2768 34 35.0397 26.3888 35.0397 17C35.0397 7.61116 27.2768 0 17.7007 0C8.12463 0 0.361694 7.61116 0.361694 17C0.361694 26.3888 8.12463 34 17.7007 34Z" fill="#D7EAFC"/>
<path fill-rule="evenodd" clip-rule="evenodd" d="M20.214 14.9652C20.214 16.3522 19.1416 17.4643 17.8041 17.4643C16.4667 17.4643 15.3943 16.3522 15.3943 14.9652C15.3943 13.5777 16.4667 12.4667 17.8041 12.4667C19.1416 12.4667 20.214 13.5777 20.214 14.9652ZM17.8041 21.9111C15.8398 21.9111 14.1625 21.59 14.1625 20.3057C14.1625 19.0208 15.829 18.688 17.8041 18.688C19.7685 18.688 21.4458 19.0091 21.4458 20.294C21.4458 21.5783 19.7793 21.9111 17.8041 21.9111ZM21.244 15.0103C21.244 15.7173 21.0394 16.376 20.6805 16.9236C20.6435 16.9799 20.6764 17.0559 20.7415 17.0676C20.8312 17.0836 20.924 17.0926 21.0184 17.0953C21.9593 17.1208 22.8038 16.4929 23.0371 15.5478C23.3827 14.1438 22.3679 12.8833 21.0758 12.8833C20.9353 12.8833 20.801 12.8988 20.6702 12.9264C20.6523 12.9307 20.6333 12.9392 20.623 12.9556C20.6107 12.9758 20.62 13.0029 20.6323 13.0205C21.0204 13.5845 21.244 14.2724 21.244 15.0103ZM22.8021 18.0817C23.4344 18.2098 23.8502 18.4714 24.0225 18.8515C24.1681 19.1635 24.1681 19.5256 24.0225 19.8371C23.7589 20.4266 22.9093 20.6159 22.5791 20.6648C22.5109 20.6754 22.456 20.6143 22.4632 20.5436C22.6319 18.91 21.29 18.1354 20.9429 17.9573C20.928 17.9493 20.925 17.9371 20.9265 17.9297C20.9275 17.9244 20.9337 17.9159 20.945 17.9143C21.6961 17.8999 22.5037 18.0062 22.8021 18.0817ZM14.649 17.0952C14.7434 17.0926 14.8357 17.0841 14.9259 17.0676C14.991 17.0559 15.0239 16.9799 14.9869 16.9235C14.628 16.376 14.4234 15.7173 14.4234 15.0103C14.4234 14.2724 14.647 13.5845 15.0351 13.0204C15.0474 13.0029 15.0562 12.9758 15.0444 12.9556C15.0341 12.9396 15.0146 12.9306 14.9972 12.9263C14.8659 12.8987 14.7316 12.8833 14.5911 12.8833C13.299 12.8833 12.2842 14.1437 12.6303 15.5477C12.8636 16.4929 13.7081 17.1207 14.649 17.0952ZM14.7408 17.9294C14.7423 17.9373 14.7393 17.949 14.7249 17.9575C14.3773 18.1356 13.0354 18.9102 13.2041 20.5433C13.2113 20.6145 13.1569 20.6751 13.0887 20.665C12.7585 20.6161 11.9089 20.4268 11.6453 19.8373C11.4992 19.5252 11.4992 19.1637 11.6453 18.8517C11.8176 18.4716 12.2329 18.21 12.8652 18.0814C13.1641 18.0064 13.9712 17.9001 14.7229 17.9145C14.7341 17.9161 14.7398 17.9246 14.7408 17.9294Z" fill="#328BE0"/>
</svg>
