<svg width="36" height="34" viewBox="0 0 36 34" fill="none" xmlns="http://www.w3.org/2000/svg">
<path fill-rule="evenodd" clip-rule="evenodd" d="M17.7153 34C27.2937 34 35.0586 26.3888 35.0586 17C35.0586 7.61116 27.2937 0 17.7153 0C8.13681 0 0.371948 7.61116 0.371948 17C0.371948 26.3888 8.13681 34 17.7153 34Z" fill="#FFF4DE"/>
<path fill-rule="evenodd" clip-rule="evenodd" d="M20.2292 14.9652C20.2292 16.3522 19.1565 17.4643 17.8187 17.4643C16.4809 17.4643 15.4083 16.3522 15.4083 14.9652C15.4083 13.5777 16.4809 12.4667 17.8187 12.4667C19.1565 12.4667 20.2292 13.5777 20.2292 14.9652ZM17.8187 21.9111C15.8538 21.9111 14.1761 21.59 14.1761 20.3057C14.1761 19.0208 15.8431 18.688 17.8187 18.688C19.7836 18.688 21.4613 19.0091 21.4613 20.294C21.4613 21.5783 19.7943 21.9111 17.8187 21.9111ZM21.2592 15.0103C21.2592 15.7173 21.0547 16.376 20.6957 16.9236C20.6588 16.9799 20.6916 17.0559 20.7567 17.0676C20.8465 17.0836 20.9393 17.0926 21.0336 17.0953C21.9745 17.1208 22.819 16.493 23.0523 15.5478C23.3979 14.1438 22.3832 12.8833 21.0911 12.8833C20.9506 12.8833 20.8162 12.8988 20.6855 12.9264C20.6675 12.9307 20.6486 12.9392 20.6383 12.9556C20.626 12.9758 20.6352 13.003 20.6475 13.0205C21.0357 13.5845 21.2592 14.2724 21.2592 15.0103ZM22.8175 18.0817C23.4497 18.2098 23.8655 18.4714 24.0378 18.8515C24.1835 19.1635 24.1835 19.5256 24.0378 19.8371C23.7743 20.4266 22.9246 20.6159 22.5944 20.6648C22.5262 20.6754 22.4714 20.6143 22.4786 20.5436C22.6472 18.91 21.3054 18.1354 20.9582 17.9573C20.9434 17.9493 20.9403 17.9371 20.9418 17.9297C20.9429 17.9244 20.949 17.9159 20.9603 17.9143C21.7115 17.8999 22.5191 18.0062 22.8175 18.0817ZM14.6623 17.0952C14.7567 17.0926 14.8489 17.0841 14.9392 17.0676C15.0043 17.0559 15.0371 16.9799 15.0002 16.9235C14.6413 16.376 14.4367 15.7173 14.4367 15.0103C14.4367 14.2724 14.6603 13.5845 15.0484 13.0205C15.0607 13.0029 15.0694 12.9758 15.0576 12.9556C15.0474 12.9396 15.0279 12.9306 15.0105 12.9264C14.8792 12.8987 14.7449 12.8833 14.6044 12.8833C13.3122 12.8833 12.2975 14.1437 12.6436 15.5477C12.8769 16.4929 13.7214 17.1207 14.6623 17.0952ZM14.7538 17.9294C14.7554 17.9373 14.7523 17.949 14.7379 17.9575C14.3903 18.1356 13.0484 18.9102 13.2171 20.5433C13.2243 20.6145 13.1699 20.6751 13.1017 20.665C12.7715 20.6161 11.9219 20.4269 11.6583 19.8373C11.5122 19.5252 11.5122 19.1638 11.6583 18.8517C11.8306 18.4716 12.246 18.21 12.8782 18.0814C13.1771 18.0064 13.9842 17.9001 14.7359 17.9145C14.7472 17.9161 14.7528 17.9246 14.7538 17.9294Z" fill="#F9B32E"/>
</svg>
