<svg width="21" height="16" viewBox="0 0 21 16" fill="none" xmlns="http://www.w3.org/2000/svg">
<path fill-rule="evenodd" clip-rule="evenodd" d="M13.9099 4.74011C13.9099 6.94294 12.2062 8.70925 10.0815 8.70925C7.95683 8.70925 6.25317 6.94294 6.25317 4.74011C6.25317 2.53644 7.95683 0.77182 10.0815 0.77182C12.2062 0.77182 13.9099 2.53644 13.9099 4.74011ZM10.0815 15.7718C6.96085 15.7718 4.29623 15.2619 4.29623 13.222C4.29623 11.1813 6.94375 10.6527 10.0815 10.6527C13.2022 10.6527 15.8668 11.1627 15.8668 13.2034C15.8668 15.2433 13.2193 15.7718 10.0815 15.7718ZM15.5459 4.8117C15.5459 5.93464 15.221 6.98075 14.6509 7.8504C14.5923 7.9399 14.6444 8.06064 14.7478 8.07921C14.8903 8.10454 15.0377 8.11889 15.1876 8.12311C16.6819 8.16364 18.0232 7.1665 18.3937 5.66531C18.9426 3.43547 17.331 1.43359 15.2788 1.43359C15.0556 1.43359 14.8423 1.45808 14.6346 1.50198C14.6061 1.50873 14.576 1.52224 14.5597 1.54842C14.5401 1.5805 14.5548 1.62356 14.5743 1.65142C15.1908 2.54724 15.5459 3.63979 15.5459 4.8117ZM18.0207 9.68983C19.0249 9.89331 19.6853 10.3087 19.9589 10.9124C20.1902 11.408 20.1902 11.983 19.9589 12.4778C19.5404 13.4141 18.1909 13.7147 17.6665 13.7924C17.5582 13.8093 17.471 13.7122 17.4824 13.5999C17.7504 11.0053 15.6192 9.77511 15.0678 9.49226C15.0442 9.4796 15.0393 9.46018 15.0418 9.44836C15.0434 9.43991 15.0532 9.42641 15.0711 9.42387C16.2641 9.40108 17.5468 9.56994 18.0207 9.68983ZM5.0684 8.12305C5.21824 8.11883 5.36483 8.10532 5.50816 8.07914C5.61158 8.06057 5.6637 7.93983 5.60507 7.85033C5.03501 6.98069 4.71007 5.93458 4.71007 4.81163C4.71007 3.63972 5.06514 2.54717 5.68162 1.65135C5.70117 1.62349 5.71501 1.58043 5.69628 1.54834C5.67999 1.52301 5.64905 1.50866 5.62136 1.5019C5.41288 1.458 5.19951 1.43351 4.97637 1.43351C2.92416 1.43351 1.31252 3.43539 1.86222 5.66524C2.23276 7.16644 3.57403 8.16358 5.0684 8.12305ZM5.21375 9.44785C5.21619 9.46051 5.21131 9.47909 5.1885 9.4926C4.63636 9.77544 2.50515 11.0056 2.77308 13.5994C2.78448 13.7125 2.69816 13.8088 2.58985 13.7927C2.06539 13.715 0.71598 13.4145 0.297393 12.4781C0.0652976 11.9825 0.0652976 11.4084 0.297393 10.9127C0.571022 10.3091 1.23066 9.89365 2.23478 9.68932C2.70956 9.57028 3.99138 9.40141 5.18525 9.42421C5.20316 9.42674 5.21212 9.44025 5.21375 9.44785Z" fill="#F9B32E"/>
</svg>
