<svg width="71" height="63" viewBox="0 0 71 63" fill="none" xmlns="http://www.w3.org/2000/svg">
<path fill-rule="evenodd" clip-rule="evenodd" d="M54.1606 -64.0317C65.8038 -65.0445 80.1771 -71.7663 88.2855 -61.9895C96.6802 -51.8676 88.8901 -34.8781 89.9602 -20.8658C90.7079 -11.0762 94.4616 -2.19297 93.5987 7.58377C92.5402 19.5775 91.1559 32.0158 84.4796 41.2354C76.7289 51.9386 66.1139 60.4936 54.1606 62.0455C41.5325 63.685 27.8416 59.8176 18.4932 49.8023C9.52147 40.1904 9.30347 24.5231 6.29889 10.769C3.52658 -1.92194 -1.54644 -14.6287 1.67781 -27.1742C4.93602 -39.8518 13.8159 -49.5218 23.5511 -56.3586C32.7114 -62.7917 43.4913 -63.1036 54.1606 -64.0317Z" fill="#FFDFA3"/>
</svg>
