<svg width="36" height="34" viewBox="0 0 36 34" fill="none" xmlns="http://www.w3.org/2000/svg">
<path fill-rule="evenodd" clip-rule="evenodd" d="M17.7154 34C27.2938 34 35.0587 26.3888 35.0587 17C35.0587 7.61116 27.2938 0 17.7154 0C8.13693 0 0.37207 7.61116 0.37207 17C0.37207 26.3888 8.13693 34 17.7154 34Z" fill="#FFF4DE"/>
<path fill-rule="evenodd" clip-rule="evenodd" d="M20.2293 14.9652C20.2293 16.3522 19.1566 17.4643 17.8188 17.4643C16.481 17.4643 15.4084 16.3522 15.4084 14.9652C15.4084 13.5777 16.481 12.4667 17.8188 12.4667C19.1566 12.4667 20.2293 13.5777 20.2293 14.9652ZM17.8184 21.9111C15.8535 21.9111 14.1758 21.59 14.1758 20.3057C14.1758 19.0208 15.8427 18.688 17.8184 18.688C19.7832 18.688 21.461 19.0091 21.461 20.294C21.461 21.5783 19.794 21.9111 17.8184 21.9111ZM21.2593 15.0103C21.2593 15.7173 21.0547 16.376 20.6958 16.9236C20.6589 16.9799 20.6917 17.0559 20.7568 17.0676C20.8466 17.0836 20.9394 17.0926 21.0337 17.0953C21.9746 17.1208 22.8191 16.4929 23.0524 15.5478C23.398 14.1438 22.3833 12.8833 21.0912 12.8833C20.9507 12.8833 20.8163 12.8988 20.6856 12.9264C20.6676 12.9307 20.6486 12.9392 20.6384 12.9556C20.6261 12.9758 20.6353 13.0029 20.6476 13.0205C21.0358 13.5845 21.2593 14.2724 21.2593 15.0103ZM22.8176 18.0817C23.4498 18.2098 23.8656 18.4714 24.0379 18.8515C24.1835 19.1635 24.1835 19.5256 24.0379 19.8371C23.7744 20.4266 22.9247 20.6159 22.5945 20.6648C22.5263 20.6754 22.4715 20.6143 22.4786 20.5436C22.6473 18.91 21.3055 18.1354 20.9583 17.9573C20.9435 17.9493 20.9404 17.9371 20.9419 17.9297C20.943 17.9244 20.9491 17.9159 20.9604 17.9143C21.7116 17.8999 22.5192 18.0062 22.8176 18.0817ZM14.6624 17.0952C14.7567 17.0926 14.849 17.0841 14.9393 17.0676C15.0044 17.0559 15.0372 16.9799 15.0003 16.9235C14.6414 16.376 14.4368 15.7173 14.4368 15.0103C14.4368 14.2724 14.6603 13.5845 15.0485 13.0204C15.0608 13.0029 15.0695 12.9758 15.0577 12.9556C15.0475 12.9396 15.028 12.9306 15.0106 12.9263C14.8793 12.8987 14.7449 12.8833 14.6045 12.8833C13.3123 12.8833 12.2976 14.1437 12.6437 15.5477C12.877 16.4929 13.7215 17.1207 14.6624 17.0952ZM14.7539 17.9294C14.7554 17.9373 14.7524 17.949 14.738 17.9575C14.3904 18.1356 13.0485 18.9102 13.2172 20.5433C13.2244 20.6145 13.17 20.6751 13.1018 20.665C12.7716 20.6161 11.922 20.4268 11.6584 19.8373C11.5123 19.5252 11.5123 19.1637 11.6584 18.8517C11.8307 18.4716 12.246 18.21 12.8783 18.0814C13.1772 18.0064 13.9843 17.9001 14.736 17.9145C14.7472 17.9161 14.7529 17.9246 14.7539 17.9294Z" fill="#F9B32E"/>
</svg>
